<svg xmlns="http://www.w3.org/2000/svg" xmlns:xlink="http://www.w3.org/1999/xlink" width="149" height="50" viewBox="0 0 149 50">
  <defs>
    <clipPath id="clip-path">
      <rect id="矩形_4964" data-name="矩形 4964" width="150" height="50" transform="translate(0 1.099)" fill="#fff"/>
    </clipPath>
    <clipPath id="clip-dtc_logo">
      <rect width="149" height="50"/>
    </clipPath>
  </defs>
  <g id="dtc_logo" clip-path="url(#clip-dtc_logo)">
    <g id="LOGO" transform="translate(-1 -3.099)" clip-path="url(#clip-path)">
      <g id="组_6731" data-name="组 6731" transform="translate(5.553 8.137)">
        <g id="DTC-Logo-AI" transform="translate(0 0)">
          <path id="路径_122" data-name="路径 122" d="M64.214,5.3H48.7V35.209H64.214l4.848-3.846V9.216Zm-3.1,24.479H55.736V10.943h5.376Z" transform="translate(-48.7 -5.3)" fill="#fff"/>
          <path id="路径_123" data-name="路径 123" d="M180.833,59.3h10.181l5.267,3.846v7.282h-7.369V64.873h-5.624V83.458h5.624V76.5h7.369v8.51l-5.005,4H180.833L175.5,84.739V63.555Z" transform="translate(-137.748 -49.687)" fill="#fff"/>
          <path id="路径_124" data-name="路径 124" d="M120.6,27.3H104.8v5.732h7.788V58.171H120.7V33.032h7.788V27.3Z" transform="translate(-86.569 -23.384)" fill="#fff"/>
        </g>
      </g>
      <text id="合華科技股份有限公司" transform="translate(70 26.099)" fill="#fff" font-size="18" font-family="SourceHanSansTW-Heavy, Source Han Sans TW" font-weight="800" letter-spacing="0.11em"><tspan x="0" y="21">合華科技</tspan></text>
      <text id="合華科技股份有限公司-2" data-name="合華科技股份有限公司" transform="translate(69 25.099)" fill="#fff" font-size="16" font-family="NotoSans-Bold, Noto Sans" font-weight="700"><tspan x="0" y="0">DATACOM</tspan></text>
    </g>
  </g>
</svg>
