<svg xmlns="http://www.w3.org/2000/svg" xmlns:xlink="http://www.w3.org/1999/xlink" width="24" height="26" viewBox="0 0 24 26">
  <defs>
    <clipPath id="clip-account_2">
      <rect width="24" height="26"/>
    </clipPath>
  </defs>
  <g id="account_2" data-name="account – 2" clip-path="url(#clip-account_2)">
    <g id="组_6791" data-name="组 6791" transform="translate(-1157.355 -336.547)">
      <g id="_3018530_buyer_customer_figure_person_portrait_icon" data-name="3018530_buyer_customer_figure_person_portrait_icon" transform="translate(1158.355 337)">
        <ellipse id="椭圆_109" data-name="椭圆 109" cx="5.583" cy="5.41" rx="5.583" ry="5.41" transform="translate(5.408)" fill="#1a9ce6"/>
        <path id="路径_5549" data-name="路径 5549" d="M34.168,35.651A10.825,10.825,0,0,0,23.178,25a10.825,10.825,0,0,0-10.99,10.651v1.815c.927.024,21.8-.119,22-.029Z" transform="translate(-12.188 -12.376)" fill="#2c7dce"/>
        <path id="路径_14149" data-name="路径 14149" d="M34.168,36.159c0-5.882-5-7.767-8.336-4.144s-13.645.066-13.645,5.948v.012c.927.024,21.8-.119,22-.029Z" transform="translate(-12.188 -12.884)" fill="#1a9ce6"/>
      </g>
      <path id="路径_17158" data-name="路径 17158" d="M10.808,7.214a.326.326,0,0,0-.276.237,7.637,7.637,0,0,1-3.367,3.73,10.1,10.1,0,0,1-5.007.8.246.246,0,0,0-.189.1" transform="translate(1164.125 334.745)" fill="none" stroke="#fff" stroke-width="1"/>
    </g>
  </g>
</svg>
