<svg xmlns="http://www.w3.org/2000/svg" xmlns:xlink="http://www.w3.org/1999/xlink" width="36" height="32" viewBox="0 0 36 32">
  <defs>
    <clipPath id="clip-browse">
      <rect width="36" height="32"/>
    </clipPath>
  </defs>
  <g id="browse" clip-path="url(#clip-browse)">
    <g id="组_6816" data-name="组 6816" transform="translate(-18.953 -24.069)">
      <path id="Icon_awesome-folder" data-name="Icon awesome-folder" d="M10.1,4.5H1.045C.468,4.5,0,5.454,0,6.632V19.421c0,1.177.468,2.132,1.045,2.132H10.1c.577,0,1.045-.954,1.045-2.132V6.632C11.148,5.454,10.68,4.5,10.1,4.5Z" transform="translate(20 20.669)" fill="#ecf8c9" stroke="#bcd180" stroke-width="1.3"/>
      <path id="Icon_awesome-folder-2" data-name="Icon awesome-folder" d="M26.251,4.5H2.716A2.729,2.729,0,0,0,0,7.243V23.7a2.729,2.729,0,0,0,2.716,2.743H26.251A2.729,2.729,0,0,0,28.967,23.7V7.243A2.729,2.729,0,0,0,26.251,4.5Z" transform="translate(20 24.98)" fill="#ecf8c9" stroke="#bcd180" stroke-width="1.3"/>
      <path id="Icon_metro-search" data-name="Icon metro-search" d="M22.969,20.07l-5.077-4.01a2.565,2.565,0,0,0-1.758-.77,9.358,9.358,0,0,0,2.207-6.038A9.207,9.207,0,0,0,9.169-.033a9.28,9.28,0,0,0-9.2,9.315A9.207,9.207,0,0,0,9.14,18.566,9.113,9.113,0,0,0,15.1,16.332a2.629,2.629,0,0,0,.761,1.78L20.073,23a2.085,2.085,0,0,0,3.067.173,2.145,2.145,0,0,0-.171-3.1Zm-13.825-4.6a6.2,6.2,0,0,1,.019-12.4,6.2,6.2,0,0,1-.019,12.4Z" transform="translate(30.181 31.202)" fill="#368d41"/>
    </g>
  </g>
</svg>
