<svg xmlns="http://www.w3.org/2000/svg" xmlns:xlink="http://www.w3.org/1999/xlink" width="52" height="52" viewBox="0 0 52 52">
  <defs>
    <linearGradient id="linear-gradient" x1="0.5" x2="0.5" y2="1" gradientUnits="objectBoundingBox">
      <stop offset="0" stop-color="#419af3"/>
      <stop offset="1" stop-color="#203cd9"/>
    </linearGradient>
    <clipPath id="clip-bulletinboard">
      <rect width="52" height="52"/>
    </clipPath>
  </defs>
  <g id="bulletinboard" clip-path="url(#clip-bulletinboard)">
    <g id="组_6795" data-name="组 6795" transform="translate(-380 -316)">
      <path id="路径_17501" data-name="路径 17501" d="M25,0A25,25,0,1,1,0,25,25,25,0,0,1,25,0Z" transform="translate(381 317)" fill="url(#linear-gradient)"/>
      <g id="组_5333" data-name="组 5333" transform="translate(49.427 6.604)">
        <path id="路径_17538" data-name="路径 17538" d="M0,0H13.365V1.961H0Z" transform="translate(360.799 323.061)" fill="#fff"/>
        <rect id="矩形_5199" data-name="矩形 5199" width="7.793" height="1.961" transform="translate(360.798 327.423)" fill="#fff"/>
        <rect id="矩形_5202" data-name="矩形 5202" width="13.365" height="0.961" transform="translate(360.798 331.858)" fill="#fff"/>
        <rect id="矩形_5203" data-name="矩形 5203" width="9.916" height="1.961" transform="translate(360.798 335.293)" fill="#fff"/>
        <g id="组_5334" data-name="组 5334" transform="translate(338.983 320.003)">
          <g id="路径_17159" data-name="路径 17159" transform="translate(2.753 0.615)" fill="#fff">
            <path d="M 9.375845909118652 23.51406097412109 L 5.352376937866211 23.51406097412109 L 5.352376937866211 16.97170066833496 L 5.352376937866211 16.73609161376953 L 5.134087085723877 16.64743041992188 C 2.272577285766602 15.48517036437988 0.3499971628189087 12.30130100250244 0.3499971628189087 8.724770545959473 C 0.3499971628189087 4.106910705566406 3.528817176818848 0.3500006794929504 7.436117172241211 0.3500006794929504 C 11.34341716766357 0.3500006794929504 14.52223682403564 4.106910705566406 14.52223682403564 8.724770545959473 C 14.52223682403564 10.59619045257568 14.01099681854248 12.36619091033936 13.04378700256348 13.843430519104 C 12.11405754089355 15.26344108581543 10.80149745941162 16.31027030944824 9.34788703918457 16.79109001159668 L 9.103907585144043 16.87178993225098 L 9.107836723327637 17.12873077392578 C 9.143187522888184 19.44046020507812 9.313783645629883 22.46998405456543 9.375845909118652 23.51406097412109 Z" stroke="none"/>
            <path d="M 9.004795074462891 23.16406059265137 C 8.931434631347656 21.8884162902832 8.789786338806152 19.22063064575195 8.757877349853516 17.13408088684082 L 8.750017166137695 16.62019157409668 L 9.237967491149902 16.45878982543945 C 12.14319705963135 15.49782085418701 14.17223739624023 12.31748104095459 14.17223739624023 8.724770545959473 C 14.17223739624023 4.299900531768799 11.15042686462402 0.7000007033348083 7.436117172241211 0.7000007033348083 C 3.721807241439819 0.7000007033348083 0.6999971866607666 4.299900531768799 0.6999971866607666 8.724770545959473 C 0.6999971866607666 12.16038036346436 2.534847259521484 15.2139310836792 5.265797138214111 16.32315063476562 L 5.702377319335938 16.50048065185547 L 5.702377319335938 23.16406059265137 L 9.004795074462891 23.16406059265137 M 9.747756958007812 23.86406135559082 L 5.002377033233643 23.86406135559082 L 5.002377033233643 16.97170066833496 C 2.090627193450928 15.78904056549072 -2.827758862622431e-06 12.54344081878662 -2.827758862622431e-06 8.724770545959473 C -2.827758862622431e-06 3.906340599060059 3.329317092895508 6.777954126846453e-07 7.436117172241211 6.777954126846453e-07 C 11.54291725158691 6.777954126846453e-07 14.87223720550537 3.906340599060059 14.87223720550537 8.724770545959473 C 14.87223720550537 12.72107028961182 12.58204746246338 16.0899600982666 9.457797050476074 17.12338066101074 C 9.501347541809082 19.9714412689209 9.747756958007812 23.86406135559082 9.747756958007812 23.86406135559082 Z" stroke="none" fill="#2209a2"/>
          </g>
          <path id="路径_13943" data-name="路径 13943" d="M3038.523-1591.825h4.129s4.737.763,6.813,3.174a8.489,8.489,0,0,1,1.791,5.7h-20.672a7.833,7.833,0,0,1,1.441-5.7C3034.01-1591.062,3038.523-1591.825,3038.523-1591.825Z" transform="translate(-3030.515 1611.152)" fill="#fff"/>
          <g id="组_5333-2" data-name="组 5333" transform="translate(1.753 22.378)">
            <rect id="矩形_5200" data-name="矩形 5200" width="4.666" height="1.175" transform="translate(0 1.942)" fill="#3f0f7d"/>
            <rect id="矩形_5201" data-name="矩形 5201" width="4.702" height="1.166" transform="translate(2.886 0) rotate(90)" fill="#3f0f7d"/>
          </g>
          <path id="路径_17160" data-name="路径 17160" d="M22.386,13.484s1.7-5.022-.29-6.962S17.363,4.14,14.3,5.787s-3.4-2.746-4.49.735a11.7,11.7,0,0,0,.276,6.962l-.87-2.029C8.7,9.051,7.919-.29,16.354-.111s7.3,10.022,6.96,11.275A11.635,11.635,0,0,1,22.386,13.484Z" transform="translate(-6.047 0.507)" fill="#2209a2"/>
          <path id="路径_17161" data-name="路径 17161" d="M24.7,4.53a1.862,1.862,0,0,1-.948,1.034c-.254.106-.681.466-1.961-.728A2.817,2.817,0,0,0,24.7,4.53Z" transform="matrix(0.995, 0.105, -0.105, 0.995, -5.584, -3.073)" fill="#2209a2"/>
          <path id="路径_17162" data-name="路径 17162" d="M24.845,4.53A2.69,2.69,0,0,1,23.025,5.7c-.2.071-.339.081-1.371-.733A3.183,3.183,0,0,0,24.845,4.53Z" transform="translate(-6.339 -1.455)" fill="#2209a2"/>
        </g>
        <rect id="矩形_5204" data-name="矩形 5204" width="13.365" height="0.48" transform="translate(360.799 324.782)" fill="#6aa2f9"/>
        <rect id="矩形_5205" data-name="矩形 5205" width="7.793" height="0.48" transform="translate(360.798 329.384)" fill="#6aa2f9"/>
        <rect id="矩形_5206" data-name="矩形 5206" width="9.916" height="0.48" transform="translate(360.798 337.254)" fill="#6aa2f9"/>
        <rect id="矩形_5207" data-name="矩形 5207" width="13.365" height="0.48" transform="translate(360.798 332.819)" fill="#6aa2f9"/>
        <g id="组_6633" data-name="组 6633" transform="translate(349.573 332.449)">
          <path id="路径_17489" data-name="路径 17489" d="M-3.422-2.459S.64-2.335.468.01c0,1.667-2.749,4.978-2.749,4.978" transform="translate(4.391 9.109)" fill="none" stroke="#2209a2" stroke-width="1"/>
          <g id="组_6630" data-name="组 6630" transform="translate(0 12.435)">
            <path id="路径_17490" data-name="路径 17490" d="M300.687,96.01A1.659,1.659,0,1,0,299,94.352,1.674,1.674,0,0,0,300.687,96.01Z" transform="translate(-298.998 -92.693)" fill="#2209a2"/>
            <path id="路径_17493" data-name="路径 17493" d="M299.969,94.67a.989.989,0,1,0-.973-.988A.981.981,0,0,0,299.969,94.67Z" transform="translate(-298.28 -92.023)" fill="#fff"/>
          </g>
        </g>
        <path id="路径_17498" data-name="路径 17498" d="M1.293.773S.258.818.348,1.452c.107.817.6,3.29,1.969,2.784,1.14-.422,1.148-2.064.969-3.475C3.256.477,2.268.716,2.268.716" transform="matrix(-0.766, 0.643, -0.643, -0.766, 350.344, 341.437)" fill="none" stroke="#2209a2" stroke-miterlimit="10" stroke-width="1"/>
      </g>
    </g>
  </g>
</svg>
