<svg xmlns="http://www.w3.org/2000/svg" xmlns:xlink="http://www.w3.org/1999/xlink" width="27" height="30" viewBox="0 0 27 30">
  <defs>
    <clipPath id="clip-calendar">
      <rect width="27" height="30"/>
    </clipPath>
  </defs>
  <g id="calendar" clip-path="url(#clip-calendar)">
    <path id="_8725528_calendar_alt_icon" data-name="8725528_calendar_alt_icon" d="M14.8,24.212a1.29,1.29,0,1,0-1.28-1.29A1.285,1.285,0,0,0,14.8,24.212Zm6.4,0a1.29,1.29,0,1,0-1.28-1.29A1.285,1.285,0,0,0,21.2,24.212Zm0-5.158a1.29,1.29,0,1,0-1.28-1.29A1.285,1.285,0,0,0,21.2,19.053Zm-6.4,0a1.29,1.29,0,1,0-1.28-1.29A1.285,1.285,0,0,0,14.8,19.053ZM23.758,3.579h-1.28V2.29a1.28,1.28,0,1,0-2.56,0v1.29H9.679V2.29a1.28,1.28,0,1,0-2.56,0v1.29H5.84A3.854,3.854,0,0,0,2,7.448V25.5A3.854,3.854,0,0,0,5.84,29.37H23.758A3.854,3.854,0,0,0,27.6,25.5V7.448A3.854,3.854,0,0,0,23.758,3.579ZM25.037,25.5a1.285,1.285,0,0,1-1.28,1.29H5.84A1.285,1.285,0,0,1,4.56,25.5V13.9H25.037Zm0-14.185H4.56V7.448a1.285,1.285,0,0,1,1.28-1.29h1.28v1.29a1.28,1.28,0,1,0,2.56,0V6.158H19.918v1.29a1.28,1.28,0,1,0,2.56,0V6.158h1.28a1.285,1.285,0,0,1,1.28,1.29ZM8.4,19.053a1.29,1.29,0,1,0-1.28-1.29A1.285,1.285,0,0,0,8.4,19.053Zm0,5.158a1.29,1.29,0,1,0-1.28-1.29A1.285,1.285,0,0,0,8.4,24.212Z" transform="translate(-1.299 -0.185)" fill="#3d6afe"/>
  </g>
</svg>
