<svg xmlns="http://www.w3.org/2000/svg" xmlns:xlink="http://www.w3.org/1999/xlink" width="36" height="30" viewBox="0 0 36 30">
  <defs>
    <clipPath id="clip-certificate">
      <rect width="36" height="30"/>
    </clipPath>
  </defs>
  <g id="certificate" clip-path="url(#clip-certificate)">
    <g id="组_6814" data-name="组 6814" transform="translate(-270 -579.448)">
      <rect id="矩形_5784" data-name="矩形 5784" width="24.208" height="19" transform="translate(279.069 583.897)" fill="#c9bfff"/>
      <g id="组_6808" data-name="组 6808" transform="translate(271 581)">
        <g id="Page-1" transform="translate(0)">
          <g id="icon-138-certificate">
            <path id="certificate-2" data-name="certificate" d="M35.16,31.9A3.01,3.01,0,0,0,38,28.732V8.164A3.015,3.015,0,0,0,35.16,5H6.84A3.01,3.01,0,0,0,4,8.164V28.732A3.015,3.015,0,0,0,6.84,31.9ZM19.583,8.164v2.927H33.75V8.164Zm0,4.746v1.582H33.75V12.911Zm5.667,3.4v2.927h8.5V16.312Z" transform="translate(-4 -5)" fill="#1066db" fill-rule="evenodd"/>
          </g>
        </g>
        <path id="路径_17532" data-name="路径 17532" d="M9.858,14.211H1.1A1.143,1.143,0,0,1,0,13.027V7.105A1.144,1.144,0,0,1,1.1,5.92h.548V4.145A4,4,0,0,1,5.476,0,4,4,0,0,1,9.31,4.145V5.92h.548a1.144,1.144,0,0,1,1.095,1.185v5.922A1.143,1.143,0,0,1,9.858,14.211ZM5.476,1.777A2.287,2.287,0,0,0,3.286,4.145V5.92H7.667V4.145A2.287,2.287,0,0,0,5.476,1.777Z" transform="translate(3.24 8.4)" fill="#fff"/>
      </g>
    </g>
  </g>
</svg>
