<svg xmlns="http://www.w3.org/2000/svg" xmlns:xlink="http://www.w3.org/1999/xlink" width="22" height="17" viewBox="0 0 22 17">
  <defs>
    <clipPath id="clip-closeeye">
      <rect width="22" height="17"/>
    </clipPath>
  </defs>
  <g id="closeeye" clip-path="url(#clip-closeeye)">
    <g id="组_6818" data-name="组 6818" transform="translate(1 1)">
      <path id="Icon_awesome-eye-slash" data-name="Icon awesome-eye-slash" d="M9.474,12.855c2.5,0,6.059-2.237,6.245-4.628L13.3,5.972l2.417-1.849,1.906,1.849a10.694,10.694,0,0,1,1.208,1.787,1.018,1.018,0,0,1,0,.938,10.577,10.577,0,0,1-9.359,5.7,10.444,10.444,0,0,1-2.562-.336l1.707-1.29a4.849,4.849,0,0,0,.855.084Zm-8.385.412,1.7-1.291A10.692,10.692,0,0,1,.115,8.7a1.018,1.018,0,0,1,0-.938,10.577,10.577,0,0,1,9.359-5.7A10.325,10.325,0,0,1,14.32,3.268L18.5.108a.535.535,0,0,1,.739.09l.646.812a.506.506,0,0,1-.092.722L2.381,14.891a.535.535,0,0,1-.739-.09L1,13.989a.506.506,0,0,1,.093-.722Zm4.105-3.109,1.293-.976a2.982,2.982,0,0,1-.171-.955A3.021,3.021,0,0,1,7.546,5.763a3.176,3.176,0,0,1,2.76-.5A1.508,1.508,0,0,0,10,6.17a1.467,1.467,0,0,0,.051.321l2.421-1.828a4.79,4.79,0,0,0-6.349.291A4.572,4.572,0,0,0,4.737,8.227a4.433,4.433,0,0,0,.457,1.932Z" transform="translate(0 0)" fill="#3d6afe"/>
      <ellipse id="椭圆_41" data-name="椭圆 41" cx="3.5" cy="3.5" rx="3.5" ry="3.5" transform="translate(6.18 4.519)" fill="#3d6afe"/>
    </g>
  </g>
</svg>
