<svg xmlns="http://www.w3.org/2000/svg" xmlns:xlink="http://www.w3.org/1999/xlink" width="24" height="26" viewBox="0 0 24 26">
  <defs>
    <clipPath id="clip-code_1">
      <rect width="24" height="26"/>
    </clipPath>
  </defs>
  <g id="code_1" data-name="code – 1" clip-path="url(#clip-code_1)">
    <g id="组_6792" data-name="组 6792" transform="translate(-1161.762 -576.554)">
      <g id="组_5325" data-name="组 5325" transform="translate(1163 577.5)">
        <g id="组_5324" data-name="组 5324">
          <path id="路径_5484" data-name="路径 5484" d="M23.7,5.444c-7.028,0-9.239-3.048-9.255-3.074A.819.819,0,0,0,13.762,2h0a.818.818,0,0,0-.679.362S10.856,5.444,3.828,5.444A.845.845,0,0,0,3,6.3v7.542c0,7.964,5.886,10.332,9.4,11.761l1.051.43a.751.751,0,0,0,.629,0l1.051-.43c3.51-1.421,9.4-3.805,9.4-11.761V6.3A.845.845,0,0,0,23.7,5.444Z" transform="translate(-3 -2)" fill="#2c7dce"/>
          <path id="路径_5484-2" data-name="路径 5484" d="M23.7,5.444c-7.028,0-9.239-3.048-9.255-3.074A.819.819,0,0,0,13.762,2h0a.818.818,0,0,0-.679.362S10.856,5.444,3.828,5.444A.845.845,0,0,0,3,6.3v7.542c0,4.77-.052-4.074,5.34-7.542,6.981-3.58,7.422.054,16.184,0A.845.845,0,0,0,23.7,5.444Z" transform="translate(-3 -2)" fill="#1a9ce6"/>
          <path id="路径_5484-3" data-name="路径 5484" d="M9,24.369a27.309,27.309,0,0,0,3.461,1.6l1.051.43a.751.751,0,0,0,.629,0l1.051-.43c3.51-1.421,9.4-3.805,9.4-11.761V12.392c0-2.251-3.331,9.8-10.447,8.21-2.812-1.556-4.76,1.622-7.011,1.258S7.3,23.369,9,24.369Z" transform="translate(-3.07 -2.361)" fill="#1a9ce6"/>
        </g>
        <path id="路径_17157" data-name="路径 17157" d="M17.237,7.326a.656.656,0,0,0-.688.324c-.229.557-1.738,4.933-5.425,6.779a17.323,17.323,0,0,1-8.883,1.448c-.2-.014-.4.331-.4.331" transform="translate(4.286 5.91)" fill="none" stroke="#fff" stroke-width="1"/>
      </g>
    </g>
  </g>
</svg>
