<svg xmlns="http://www.w3.org/2000/svg" xmlns:xlink="http://www.w3.org/1999/xlink" width="32" height="28" viewBox="0 0 32 28">
  <defs>
    <clipPath id="clip-download_1">
      <rect width="32" height="28"/>
    </clipPath>
  </defs>
  <g id="download_1" data-name="download – 1" clip-path="url(#clip-download_1)">
    <g id="_216183_download_icon" data-name="216183_download_icon" transform="translate(-2.388 -4.727)">
      <path id="路径_17512" data-name="路径 17512" d="M23.6,10.287a1.9,1.9,0,0,0-2.418,0L17.258,13.8V3.534A1.629,1.629,0,0,0,15.549,2a1.629,1.629,0,0,0-1.71,1.534V13.8L9.918,10.287a1.851,1.851,0,0,0-2.418,0,1.425,1.425,0,0,0,0,2.168l8.048,7.18L23.6,12.452A1.424,1.424,0,0,0,23.6,10.287Z" transform="translate(2.84 3.572)" fill="#fff"/>
      <path id="路径_17513" data-name="路径 17513" d="M33.754,22.909a1.94,1.94,0,0,0-.067-.583l-3.42-9.065A1.723,1.723,0,0,0,28.647,12l-1.743.968,3.364,9.094H6.514l3.575-9.094C9.953,12.9,8.6,12.309,8.129,12a1.723,1.723,0,0,0-1.621,1.261l-3.42,9.065a1.94,1.94,0,0,0-.067.583C3,22.909,3,24.13,3,24.13a1.779,1.779,0,0,0,1.71,1.844H32.067a1.779,1.779,0,0,0,1.71-1.844S33.776,22.909,33.754,22.909Z" transform="translate(0 5.909)" fill="#fff"/>
    </g>
  </g>
</svg>
