<svg xmlns="http://www.w3.org/2000/svg" xmlns:xlink="http://www.w3.org/1999/xlink" width="37" height="38" viewBox="0 0 37 38">
  <defs>
    <clipPath id="clip-export">
      <rect width="37" height="38"/>
    </clipPath>
  </defs>
  <g id="export" clip-path="url(#clip-export)">
    <g id="组_6815" data-name="组 6815" transform="translate(-418.407 -423.842)">
      <path id="Icon_awesome-folder" data-name="Icon awesome-folder" d="M27.7,9.036H16.237L12.416,4.5H2.865A3.168,3.168,0,0,0,0,7.9V28.315a3.168,3.168,0,0,0,2.865,3.4H27.7a3.168,3.168,0,0,0,2.865-3.4V12.438A3.168,3.168,0,0,0,27.7,9.036Z" transform="translate(420.287 429)" fill="#ffec91" stroke="#d5b517" stroke-width="1.3"/>
      <path id="路径_17522" data-name="路径 17522" d="M-.012,19.685l2.106-.006C3.586,10.966,7.23,8.045,15.962,8.019c.366,0,.714,0,1.065,0l-3.841,4.022a1.131,1.131,0,0,0,0,1.548,1.012,1.012,0,0,0,.738.319,1.025,1.025,0,0,0,.74-.323l6.195-6.657L14.7.311a1.011,1.011,0,0,0-1.478,0,1.131,1.131,0,0,0,0,1.548L17,5.828c-.332,0-.648,0-.988,0C6.116,5.858,1.526,9.754-.012,19.685Z" transform="matrix(0.998, 0.07, -0.07, 0.998, 432.725, 425.892)" fill="#ffec91" stroke="#ffec91" stroke-width="1" fill-rule="evenodd"/>
      <path id="路径_17523" data-name="路径 17523" d="M-.013,20.84l2.106-.006C3.585,12.122,5.841,8.045,14.572,8.02c.366,0,.714,0,1.065,0L11.8,12.045a1.131,1.131,0,0,0,0,1.548,1.012,1.012,0,0,0,.738.319,1.025,1.025,0,0,0,.74-.323l6.195-6.657L13.311.311a1.011,1.011,0,0,0-1.478,0,1.131,1.131,0,0,0,0,1.548L15.61,5.829c-.332,0-.648,0-.988,0C4.727,5.859,1.525,10.91-.013,20.84Z" transform="matrix(0.998, 0.07, -0.07, 0.998, 432.715, 424.975)" fill="#8b760d" stroke="#8b760d" stroke-width="1" fill-rule="evenodd"/>
    </g>
  </g>
</svg>
