<svg xmlns="http://www.w3.org/2000/svg" xmlns:xlink="http://www.w3.org/1999/xlink" width="22" height="14" viewBox="0 0 22 14">
  <defs>
    <clipPath id="clip-openeye">
      <rect width="22" height="14"/>
    </clipPath>
  </defs>
  <g id="openeye" clip-path="url(#clip-openeye)">
    <path id="Icon_awesome-eye" data-name="Icon awesome-eye" d="M.121,10.044A11.311,11.311,0,0,1,10,4.5a11.312,11.312,0,0,1,9.879,5.544.921.921,0,0,1,0,.912A11.311,11.311,0,0,1,10,16.5,11.312,11.312,0,0,1,.121,10.956.921.921,0,0,1,.121,10.044ZM10,15a4.77,4.77,0,0,0,5-4.5A4.77,4.77,0,0,0,10,6a4.77,4.77,0,0,0-5,4.5A4.767,4.767,0,0,0,10,15Zm0-7.5a3.651,3.651,0,0,1,.879.118,1.386,1.386,0,0,0,.163,1.944,1.8,1.8,0,0,0,2.16.147,2.853,2.853,0,0,1-1.357,3.27,3.628,3.628,0,0,1-3.876-.11,2.822,2.822,0,0,1-1.125-3.34A3.319,3.319,0,0,1,10,7.5Z" transform="translate(1 -3.452)" fill="#3d6afe"/>
  </g>
</svg>
