<svg xmlns="http://www.w3.org/2000/svg" xmlns:xlink="http://www.w3.org/1999/xlink" width="24" height="26" viewBox="0 0 24 26">
  <defs>
    <clipPath id="clip-password_1">
      <rect width="24" height="26"/>
    </clipPath>
  </defs>
  <g id="password_1" data-name="password – 1" clip-path="url(#clip-password_1)">
    <g id="组_6790" data-name="组 6790" transform="translate(-1162 -419)">
      <path id="路径_17154" data-name="路径 17154" d="M19.8,24H2.2A2.109,2.109,0,0,1,0,22V12a2.11,2.11,0,0,1,2.2-2H3.3V7c0-3.86,3.454-7,7.7-7s7.7,3.14,7.7,7v3h1.1A2.109,2.109,0,0,1,22,12V22A2.109,2.109,0,0,1,19.8,24ZM14,12a3,3,0,0,0-2.99,2.753L5.358,18.811a.624.624,0,0,0,.408.777l2.642.659a.531.531,0,0,0,.128.015.647.647,0,0,0,.6-.509l.264-1.06.944.235a.547.547,0,0,0,.127.015.647.647,0,0,0,.6-.509l.265-1.06a6.432,6.432,0,0,0,1,.231.985.985,0,0,0,.153-.016A3,3,0,1,0,14,12ZM11,3A4.219,4.219,0,0,0,6.6,7v3h8.8V7A4.219,4.219,0,0,0,11,3Zm3.5,13A1.5,1.5,0,1,1,16,14.5,1.5,1.5,0,0,1,14.5,16Z" transform="translate(1163 420)" fill="#2c7dce"/>
      <path id="路径_17155" data-name="路径 17155" d="M19.8,23.924H2.2A2.1,2.1,0,0,1,0,21.936c0-5.209,7.88.794,13.716-1.054C20.238,18.426,22,15.418,22,16v5.94A2.1,2.1,0,0,1,19.8,23.924Z" transform="translate(1163 420.076)" fill="#1a9ce6"/>
      <path id="路径_17156" data-name="路径 17156" d="M3.3,7c0-3.86,3.454-7,7.7-7a8.173,8.173,0,0,1,6.015,2.634c.971,1-4.645-2.6-7.736-.107S6.906,6.078,3.3,7Z" transform="translate(1163 420)" fill="#1a9ce6"/>
    </g>
  </g>
</svg>
