<svg xmlns="http://www.w3.org/2000/svg" xmlns:xlink="http://www.w3.org/1999/xlink" width="49" height="41" viewBox="0 0 49 41">
  <defs>
    <linearGradient id="linear-gradient" x1="0.5" x2="0.5" y2="1" gradientUnits="objectBoundingBox">
      <stop offset="0" stop-color="#fff"/>
      <stop offset="1" stop-color="#d9e5f3"/>
    </linearGradient>
    <clipPath id="clip-signature">
      <rect width="49" height="41"/>
    </clipPath>
  </defs>
  <g id="signature" clip-path="url(#clip-signature)">
    <g id="组_6808" data-name="组 6808" transform="translate(2877 -4657.5)">
      <g id="组_5099" data-name="组 5099" transform="translate(-2875.746 4665.994)">
        <rect id="矩形_5116" data-name="矩形 5116" width="38.64" height="30.51" rx="3" transform="translate(0 1.064)" fill="#fff"/>
        <path id="路径_13917" data-name="路径 13917" d="M29.755,32.1V3.9c0-2.154-1.444-3.9-3.224-3.9H3.214C1.511,0,.116.66,0,2.679H22.542c1.781,0,3.224,1.746,3.224,3.9V35.716a2.59,2.59,0,0,1-.01.28h.776C28.312,36,29.755,34.25,29.755,32.1Z" transform="translate(36.974 1.576) rotate(90)" fill="#b9c7f3"/>
        <g id="路径_17521" data-name="路径 17521" fill="url(#linear-gradient)">
          <path d="M 35.63960266113281 30.57376480102539 L 3.000001430511475 30.57376480102539 C 1.897201299667358 30.57376480102539 1.000001311302185 29.67656517028809 1.000001311302185 28.57376480102539 L 1.000001311302185 3.000004291534424 C 1.000001311302185 1.897204279899597 1.897201299667358 1.000004291534424 3.000001430511475 1.000004291534424 L 35.63960266113281 1.000004291534424 C 36.74240112304688 1.000004291534424 37.63960266113281 1.897204279899597 37.63960266113281 3.000004291534424 L 37.63960266113281 28.57376480102539 C 37.63960266113281 29.67656517028809 36.74240112304688 30.57376480102539 35.63960266113281 30.57376480102539 Z" stroke="none"/>
          <path d="M 3 2.000003814697266 C 2.448600769042969 2.000003814697266 2 2.448604583740234 2 3.000003814697266 L 2 28.57376480102539 C 2 29.12516403198242 2.448600769042969 29.57376480102539 3 29.57376480102539 L 35.63960266113281 29.57376480102539 C 36.19100189208984 29.57376480102539 36.63960266113281 29.12516403198242 36.63960266113281 28.57376480102539 L 36.63960266113281 3.000003814697266 C 36.63960266113281 2.448604583740234 36.19100189208984 2.000003814697266 35.63960266113281 2.000003814697266 L 3 2.000003814697266 M 3 3.814697265625e-06 L 35.63960266113281 3.814697265625e-06 C 37.29645156860352 3.814697265625e-06 38.63960266113281 1.343143463134766 38.63960266113281 3.000003814697266 L 38.63960266113281 28.57376480102539 C 38.63960266113281 30.23062515258789 37.29645156860352 31.57376480102539 35.63960266113281 31.57376480102539 L 3 31.57376480102539 C 1.343151092529297 31.57376480102539 0 30.23062515258789 0 28.57376480102539 L 0 3.000003814697266 C 0 1.343143463134766 1.343151092529297 3.814697265625e-06 3 3.814697265625e-06 Z" stroke="none" fill="#5a00ce"/>
        </g>
      </g>
      <g id="组_5100" data-name="组 5100" transform="translate(-2871.795 4688.102)">
        <g id="矩形_5124" data-name="矩形 5124" fill="#fae5ff" stroke="#5a00ce" stroke-width="0.3">
          <rect width="20.268" height="3.612" rx="1.806" stroke="none"/>
          <rect x="0.15" y="0.15" width="19.968" height="3.312" rx="1.656" fill="none"/>
        </g>
        <rect id="矩形_5125" data-name="矩形 5125" width="13.522" height="3.612" rx="1.806" fill="#9152e2"/>
      </g>
      <g id="组_5104" data-name="组 5104" transform="translate(-2866.221 4670.456) rotate(21)">
        <g id="组_5101" data-name="组 5101" transform="translate(0.251 1.211)">
          <g id="路径_13919" data-name="路径 13919" transform="translate(4.102 3.632) rotate(9)" fill="#fff">
            <path d="M 2.749962329864502 4.804741382598877 C 2.749911069869995 4.804741382598877 2.749895572662354 4.804741382598877 2.749844551086426 4.804741382598877 C 2.713334560394287 4.804731845855713 2.675804615020752 4.802851676940918 2.63828444480896 4.799151420593262 C 1.749034523963928 4.711431503295898 0.9158345460891724 3.666171550750732 0.8188445568084717 2.516641616821289 C 0.7707545757293701 1.946641564369202 0.911154568195343 1.436981558799744 1.204034566879272 1.118351578712463 C 1.397684574127197 0.9076815843582153 1.63746452331543 0.8008615970611572 1.916734576225281 0.8008615970611572 C 1.953144550323486 0.8008615970611572 1.990654587745667 0.8027415871620178 2.028214454650879 0.8064516186714172 C 2.9174644947052 0.8941715955734253 3.750654458999634 1.939431667327881 3.847644567489624 3.088961601257324 C 3.895734548568726 3.659021615982056 3.755324602127075 4.168721675872803 3.462404489517212 4.487361431121826 C 3.268810033798218 4.697953224182129 3.029096603393555 4.804741382598877 2.749962329864502 4.804741382598877 Z" stroke="none"/>
            <path d="M 2.749994516372681 4.054741382598877 C 2.80786395072937 4.054735660552979 2.852638721466064 4.042456150054932 2.910264492034912 3.979771614074707 C 3.025334596633911 3.854591608047485 3.135674476623535 3.571391582489014 3.100294589996338 3.152021646499634 C 3.023114681243896 2.237181663513184 2.370174646377563 1.59382164478302 1.954524517059326 1.552821636199951 C 1.877299189567566 1.545192837715149 1.825742840766907 1.550251841545105 1.756214618682861 1.62589156627655 C 1.641154527664185 1.751071572303772 1.530814528465271 2.034241676330566 1.566194534301758 2.453581571578979 C 1.643374562263489 3.36842155456543 2.296314477920532 4.011781692504883 2.711974620819092 4.052781581878662 C 2.725107431411743 4.054080963134766 2.737900257110596 4.054740905761719 2.749994516372681 4.054741382598877 M 2.749765157699585 5.55473804473877 C 2.68903923034668 5.554731369018555 2.627171516418457 5.551698684692383 2.564654588699341 5.545531749725342 C 1.315524578094482 5.422311782836914 0.1993045657873154 4.094461441040039 0.07150456309318542 2.579691648483276 C -0.05629544332623482 1.064921498298645 0.8527166247367859 -0.06314823031425476 2.101844549179077 0.06007160991430283 C 3.350964546203613 0.1832916140556335 4.467184543609619 1.511141657829285 4.594984531402588 3.025911569595337 C 4.716397762298584 4.464869022369385 3.902370691299438 5.554865837097168 2.749765157699585 5.55473804473877 Z" stroke="none" fill="#b9c7f3"/>
          </g>
          <path id="路径_13912" data-name="路径 13912" d="M20.409,3.867S16.415-.022,14.369.248s1.462,3.672.5,3.494C13.235,3.44,10.655,0,9.666.1,6.518.427,12.049,3.778,9.5,4.341c-1.089.241-1.843-1.113-3.387-2.452C4.482.475,1.681,3.9.009.877" transform="translate(0.08 4.088) rotate(-11)" fill="none" stroke="#b9c7f3" stroke-linecap="round" stroke-width="1.5"/>
        </g>
        <g id="组_5102" data-name="组 5102" transform="translate(0 0)">
          <g id="路径_13919-2" data-name="路径 13919" transform="translate(3.598 3.841) rotate(9)" fill="#fff">
            <path d="M 2.755002498626709 4.805014133453369 C 2.754968166351318 4.805014133453369 2.754958391189575 4.805014133453369 2.754924058914185 4.805014133453369 C 2.71834397315979 4.805014133453369 2.680694103240967 4.803143978118896 2.643033981323242 4.799444198608398 C 1.750784039497375 4.711934089660645 0.9153940081596375 3.66706395149231 0.8188140392303467 2.517784118652344 C 0.7710040211677551 1.94892406463623 0.9117339849472046 1.439794063568115 1.204903960227966 1.120944023132324 C 1.400084018707275 0.9086840748786926 1.641944050788879 0.801054060459137 1.923774003982544 0.801054060459137 C 1.960324048995972 0.801054060459137 1.99795401096344 0.8029240965843201 2.03563404083252 0.8066240549087524 C 2.927884101867676 0.8941340446472168 3.763273954391479 1.939004063606262 3.859853982925415 3.088284015655518 C 3.907664060592651 3.657174110412598 3.766923904418945 4.166324138641357 3.473733901977539 4.485174179077148 C 3.278587818145752 4.69739818572998 3.036758422851562 4.805014133453369 2.755002498626709 4.805014133453369 Z" stroke="none"/>
            <path d="M 2.754993915557861 4.055014133453369 C 2.813874006271362 4.055014133453369 2.862283945083618 4.042044162750244 2.921633958816528 3.977504014968872 C 3.036933898925781 3.85210394859314 3.147624015808105 3.569154024124146 3.112493991851807 3.151084184646606 C 3.035664081573486 2.236894130706787 2.38003396987915 1.594004034996033 1.962494015693665 1.553044080734253 C 1.883821368217468 1.545345902442932 1.828638911247253 1.550662994384766 1.756994009017944 1.628584027290344 C 1.641713976860046 1.753964066505432 1.531044006347656 2.036904096603394 1.566174030303955 2.454983949661255 C 1.643004059791565 3.369174003601074 2.298634052276611 4.012063980102539 2.716174125671387 4.053024291992188 C 2.729664087295532 4.054344177246094 2.742723941802979 4.055014133453369 2.754993915557861 4.055014133453369 M 2.754889965057373 5.555015087127686 C 2.69413948059082 5.555012226104736 2.632358312606812 5.551997661590576 2.569823980331421 5.545864105224609 C 1.317304015159607 5.423014163970947 0.1987440139055252 4.095414161682129 0.07144401222467422 2.580594062805176 C -0.05585598200559616 1.065764188766479 0.8563101887702942 -0.06264601647853851 2.108844041824341 0.06020406633615494 C 3.361364126205444 0.1830540597438812 4.479924201965332 1.510654091835022 4.607223987579346 3.025474071502686 C 4.728168487548828 4.464673519134521 3.910932540893555 5.555075168609619 2.754889965057373 5.555015087127686 Z" stroke="none" fill="#954fef"/>
          </g>
          <path id="路径_13912-2" data-name="路径 13912" d="M21.016,4.477S15.936-.023,13.884.246s1.467,3.673.5,3.495C12.748,3.437,10.16,0,9.169.1,6.012.42,11.56,3.774,9.008,4.336c-1.092.24-1.848-1.115-3.4-2.454C3.97.466,2.623,4.579.018,1.846" transform="translate(0.082 4.208) rotate(-11)" fill="none" stroke="#954fef" stroke-linecap="round" stroke-width="1.5"/>
        </g>
      </g>
      <g id="组_5103" data-name="组 5103" transform="translate(-2852.131 4657.361)">
        <path id="路径_13886" data-name="路径 13886" d="M0,.028.822,20.393l.051,1.262.073,1.8L4.36,27.144l3.125-3.522-.073-1.8-.051-1.262L6.541.193Z" transform="matrix(0.766, 0.643, -0.643, 0.766, 16.793, 4.247)" fill="#ecf0f1"/>
        <path id="路径_13887" data-name="路径 13887" d="M0,.014,1.09,27.047l3.125-3.522-.073-1.8-.051-1.262L3.27.1Z" transform="matrix(0.766, 0.643, -0.643, 0.766, 19.236, 6.423)" fill="#bdc3c7"/>
        <path id="路径_13909" data-name="路径 13909" d="M0,.028l6.54.165.8,19.824L.8,19.853Z" transform="matrix(0.766, 0.643, -0.643, 0.766, 15.69, 5.674)" fill="#9152e2"/>
        <path id="路径_13916" data-name="路径 13916" d="M2.141,29.957l2.3.053,2.3.062L4.542,32.538ZM3.522,7.3,6.8,7.39l.8,19.821-3.272-.08ZM.106,3.618A3.2,3.2,0,0,1,3.233.1a3.745,3.745,0,0,1,3.416,3.69l.073,1.8L.179,5.422Z" transform="matrix(0.766, 0.643, -0.643, 0.766, 20.121, 0)" fill="#1f31a7" opacity="0.78"/>
        <path id="路径_13891" data-name="路径 13891" d="M3.231.1A3.194,3.194,0,0,0,.106,3.617l.073,1.8,3.27.082Z" transform="matrix(0.766, 0.643, -0.643, 0.766, 20.121, 0.002)" fill="#9152e2"/>
        <path id="路径_13922" data-name="路径 13922" d="M11974.11-8438.448l4.771-.756-4.926-4.418Z" transform="translate(-11971.498 8466.368)" fill="#9152e2"/>
      </g>
      <rect id="矩形_5130" data-name="矩形 5130" width="10.796" height="1.151" transform="translate(-2871.795 4670.354)" fill="#954fef"/>
    </g>
  </g>
</svg>
