<svg xmlns="http://www.w3.org/2000/svg" xmlns:xlink="http://www.w3.org/1999/xlink" width="90" height="90" viewBox="0 0 90 90">
  <defs>
    <linearGradient id="linear-gradient" x1="0.5" x2="0.5" y2="1" gradientUnits="objectBoundingBox">
      <stop offset="0" stop-color="#4ace0b"/>
      <stop offset="0.41" stop-color="#8fe565"/>
      <stop offset="1" stop-color="#42cc00"/>
    </linearGradient>
    <clipPath id="clip-success">
      <rect width="90" height="90"/>
    </clipPath>
  </defs>
  <g id="success" clip-path="url(#clip-success)">
    <g id="组_6799" data-name="组 6799" transform="translate(-219.943 -6.361)">
      <path id="Icon_awesome-check-circle" data-name="Icon awesome-check-circle" d="M88.7,44.633A44.069,44.069,0,1,1,44.631.563,44.069,44.069,0,0,1,88.7,44.633Z" transform="translate(220.381 6.799)" fill="#fff"/>
      <g id="组_4400" data-name="组 4400" transform="translate(228.288)">
        <path id="Icon_awesome-check-circle-2" data-name="Icon awesome-check-circle" d="M74.01,37.368A36.724,36.724,0,1,1,37.286.562,36.765,36.765,0,0,1,74.01,37.368Z" transform="translate(-0.562 12.688)" fill="url(#linear-gradient)"/>
      </g>
      <path id="Icon_awesome-check" data-name="Icon awesome-check" d="M17.682,44.246.762,26.611a2.8,2.8,0,0,1,0-3.837l3.681-3.837a2.529,2.529,0,0,1,3.681,0l11.4,11.88L43.935,5.372a2.529,2.529,0,0,1,3.681,0L51.3,9.209a2.8,2.8,0,0,1,0,3.837l-29.935,31.2A2.529,2.529,0,0,1,17.682,44.246Z" transform="translate(237.657 26.826)" fill="#fff"/>
    </g>
  </g>
</svg>
