<svg xmlns="http://www.w3.org/2000/svg" xmlns:xlink="http://www.w3.org/1999/xlink" width="52" height="52" viewBox="0 0 52 52">
  <defs>
    <clipPath id="clip-system">
      <rect width="52" height="52"/>
    </clipPath>
  </defs>
  <g id="system" clip-path="url(#clip-system)">
    <g id="椭圆_171" data-name="椭圆 171" transform="translate(1 1)" fill="#fff" stroke="#4c9be8" stroke-width="1">
      <circle cx="25" cy="25" r="25" stroke="none"/>
      <circle cx="25" cy="25" r="24.5" fill="none"/>
    </g>
    <g id="组_6793" data-name="组 6793" transform="translate(-1219 -244)">
      <g id="组_5321" data-name="组 5321">
        <g id="路径_17152" data-name="路径 17152" transform="translate(1240 278)" fill="#1a9ce6">
          <path d="M 11.49970054626465 5.50029993057251 L 0.5000002980232239 5.50029993057251 L 0.5000002980232239 3.650539875030518 L 3.999600172042847 3.650539875030518 L 4.499600410461426 3.650539875030518 L 4.499600410461426 3.150539875030518 L 4.499600410461426 0.4999999701976776 L 7.500100135803223 0.4999999701976776 L 7.500100135803223 3.150539875030518 L 7.500100135803223 3.650539875030518 L 8.000100135803223 3.650539875030518 L 11.49970054626465 3.650539875030518 L 11.49970054626465 5.50029993057251 Z" stroke="none"/>
          <path d="M 10.99970054626465 5.00029993057251 L 10.99970054626465 4.150539875030518 L 7.000100135803223 4.150539875030518 L 7.000100135803223 0.9999999403953552 L 4.999600410461426 0.9999999403953552 L 4.999600410461426 4.150539875030518 L 1.000000238418579 4.150539875030518 L 1.000000238418579 5.00029993057251 L 10.99970054626465 5.00029993057251 M 11.99970054626465 6.00029993057251 L 2.731323149873788e-07 6.00029993057251 L 2.731323149873788e-07 3.150539875030518 L 3.999600172042847 3.150539875030518 L 3.999600172042847 -3.471374654395731e-08 L 8.000100135803223 -3.471374654395731e-08 L 8.000100135803223 3.150539875030518 L 11.99970054626465 3.150539875030518 L 11.99970054626465 6.00029993057251 Z" stroke="none" fill="#1a9ce6"/>
        </g>
        <g id="矩形_4969" data-name="矩形 4969" transform="translate(1231 256)" fill="#1a9ce6" stroke="#1a9ce6" stroke-width="2.5">
          <rect width="29" height="23" rx="3" stroke="none"/>
          <rect x="1.25" y="1.25" width="26.5" height="20.5" rx="1.75" fill="none"/>
        </g>
        <path id="路径_17153" data-name="路径 17153" d="M18.09,6.6c5.126-3.963,4.6-5.544,6.764-6.707A2.707,2.707,0,0,1,29,2v9a3,3,0,0,1-3,3H3a3,3,0,0,1-3-3V7.761C0,6.1,12.964,10.562,18.09,6.6Z" transform="translate(1231 265)" fill="#2c7dce"/>
        <g id="矩形_4972" data-name="矩形 4972" transform="translate(1233 258)" fill="none" stroke="#fff" stroke-width="1.2">
          <rect width="25" height="18" rx="3" stroke="none"/>
          <rect x="0.6" y="0.6" width="23.8" height="16.8" rx="2.4" fill="none"/>
        </g>
      </g>
    </g>
  </g>
</svg>
