<svg xmlns="http://www.w3.org/2000/svg" xmlns:xlink="http://www.w3.org/1999/xlink" width="22" height="23" viewBox="0 0 22 23">
  <defs>
    <clipPath id="clip-turn_1">
      <rect width="22" height="23"/>
    </clipPath>
  </defs>
  <g id="turn_1" data-name="turn – 1" clip-path="url(#clip-turn_1)">
    <g id="iconfinder_reload_arrow_recycle_refresh_return_6428070" transform="translate(-1 -0.758)">
      <path id="路径_10" data-name="路径 10" d="M11.867,4.151a7.53,7.53,0,0,1,4.919,1.877h-1.72A1.029,1.029,0,0,0,14.08,7.1a1.029,1.029,0,0,0,.987,1.067h3.947A1.029,1.029,0,0,0,20,7.1V2.825a.99.99,0,1,0-1.973,0V4.371A9.253,9.253,0,0,0,7.589,3.065,10.761,10.761,0,0,0,2,12.691a1.029,1.029,0,0,0,.987,1.067,1.029,1.029,0,0,0,.987-1.067c0-4.714,3.536-8.534,7.894-8.539Z" fill="#2c7dce" stroke="#2c7dce" stroke-width="0.3"/>
      <path id="路径_11" data-name="路径 11" d="M20.77,11a1.029,1.029,0,0,0-.987,1.067,8.609,8.609,0,0,1-4.466,7.7A7.4,7.4,0,0,1,6.972,18.73H8.69a1.071,1.071,0,0,0,0-2.135H4.744a1.029,1.029,0,0,0-.987,1.067v4.27A1.029,1.029,0,0,0,4.744,23a1.029,1.029,0,0,0,.987-1.067V20.387a9.253,9.253,0,0,0,10.437,1.305,10.762,10.762,0,0,0,5.589-9.625A1.029,1.029,0,0,0,20.77,11Z" fill="#2c7dce" stroke="#2c7dce" stroke-width="0.3"/>
    </g>
  </g>
</svg>
