<svg xmlns="http://www.w3.org/2000/svg" xmlns:xlink="http://www.w3.org/1999/xlink" width="322" height="61" viewBox="0 0 322 61">
  <defs>
    <linearGradient id="linear-gradient" y1="-5.369" x2="1" y2="-5.369" gradientUnits="objectBoundingBox">
      <stop offset="0" stop-color="#fff" stop-opacity="0"/>
      <stop offset="0.15"/>
    </linearGradient>
    <clipPath id="clip-dtc.logo">
      <rect width="322" height="61"/>
    </clipPath>
  </defs>
  <g id="dtc.logo" clip-path="url(#clip-dtc.logo)">
    <g id="组_13061" data-name="组 13061" transform="translate(-2356.629 -7328.444)">
      <path id="路径_21298" data-name="路径 21298" d="M14.712,8.412h6.237V34.067H14.712ZM6.549.727V41.466h18l5.623-5.238V6.061L24.548.727Z" transform="translate(2366.375 7330.595)" fill="#3f0f7d"/>
      <path id="路径_21299" data-name="路径 21299" d="M27.2,6.454H39.015l6.111,5.238V21.61h-8.55V14.045H30.052V39.36h6.525V29.878h8.55V41.47l-5.807,5.453H27.2L21.016,41.1V12.25Z" transform="translate(2384.458 7337.963)" fill="#3f0f7d"/>
      <path id="路径_21300" data-name="路径 21300" d="M31.28,3.06H12.95v7.808h9.036V45.109H31.4V10.868h9.036V3.06Z" transform="translate(2374.376 7333.597)" fill="#c60b28"/>
      <path id="路径_21301" data-name="路径 21301" d="M12.483,5.924S3.709,7.4,3.448,13.343c0,0-.513,6.96,9.884,12.8A90.226,90.226,0,0,0,61.414,36.893s13.862-.8,16.172-8.366c0,0,.565,8.46-16.4,10.161,0,0-28.315,1.626-48.261-10.62A23.862,23.862,0,0,1,1.238,14.944c-.025-.023-2.8-9.02,11.245-9.02" transform="translate(2359.44 7337.281)" fill="#04aceb"/>
      <path id="路径_21309" data-name="路径 21309" d="M50.1,7.413c-.261.36-.521.717-.782,1.051a26.508,26.508,0,0,0,9.392,5.647,8.567,8.567,0,0,0-1.944,2.607c-1.139-.549-2.3-1.125-3.416-1.771V16.5H41.494V15.33a31.772,31.772,0,0,1-3.179,1.745,11.637,11.637,0,0,0-2.064-2.607C40.616,12.723,45.1,9.827,47.589,6.1ZM39.951,18.559h15.3v9.877H52.238V27.48H42.844v1.054H39.951Zm2.892,6.291h9.394V21.071H42.844ZM51.717,13.9a29.718,29.718,0,0,1-4.128-3.421A29.569,29.569,0,0,1,43.675,13.9Z" transform="translate(2402.353 7333.966)" fill="#2e2e2e"/>
      <path id="路径_21310" data-name="路径 21310" d="M56.62,22.051v1.2h7.9v2.344h-7.9v2.872h-2.8V25.591H45.946V23.247h7.875v-1.2H44.57V19.589h9.251V14.184h-8.66v-2.32H65.443v2.32H56.62v5.405h9.488v2.462ZM49.74,9.972H44.713V7.483H49.74V6.146h2.752V7.483H54.91V9.972H52.492v1.34H49.74Zm.972,4.641v1.03H52.9v2.388H50.712v1.151H48.1V18.031H45.141V15.643H48.1v-1.03Zm7.237-4.641H55.671V7.483h2.278V6.146H60.7V7.483h5.147V9.972H60.7v1.34H57.949Zm1.9,9.21V17.913h-2.3V15.521h2.3v-.909h2.608v.909H65.3v2.391H62.454v1.269Z" transform="translate(2418.388 7334.064)" fill="#2e2e2e"/>
      <path id="路径_21311" data-name="路径 21311" d="M60.59,21.4a26.457,26.457,0,0,0-1.426-2.633v9.712H56.439V19.865A22.4,22.4,0,0,1,53.851,24.6a15.731,15.731,0,0,0-1.3-2.7,22.539,22.539,0,0,0,3.51-6.409h-3.2V12.836h3.583v-2.7c-.925.142-1.8.286-2.682.381A8.638,8.638,0,0,0,53,8.314a37.357,37.357,0,0,0,7.638-1.963l1.59,2.32a20.84,20.84,0,0,1-3.062.886v3.28H62.3V15.49H59.164v.189c.691.67,2.635,2.92,3.086,3.469Zm11.693,1.03v6.028H69.507V22.929l-7.164,1.24-.451-2.7,7.615-1.314V6.138h2.775V19.676l2.348-.407.451,2.654ZM66.331,19.1a21.538,21.538,0,0,0-3.774-3.66l1.8-1.624a21.032,21.032,0,0,1,3.891,3.466Zm.615-6.314A17.776,17.776,0,0,0,63.412,9.2l1.85-1.629a19.062,19.062,0,0,1,3.651,3.445Z" transform="translate(2433.766 7334.048)" fill="#2e2e2e"/>
      <path id="路径_21312" data-name="路径 21312" d="M69.154,18.926c-.831.239-1.686.478-2.541.7v5.715c0,1.387-.258,2.055-1.066,2.512a7.934,7.934,0,0,1-3.607.5,11.062,11.062,0,0,0-.782-2.583c.925.024,1.9.024,2.207.024.331,0,.448-.121.448-.481V20.384l-2.3.576-.738-2.7c.878-.195,1.9-.407,3.036-.7v-4.23H61.088V10.7h2.726V6.179h2.8V10.7h2.324v2.633H66.613v3.539l2.184-.549ZM82.292,15.7a17.466,17.466,0,0,1-4.435,7.941,16.323,16.323,0,0,0,5.5,2.415,12.535,12.535,0,0,0-1.806,2.462,17.461,17.461,0,0,1-5.9-3.011,21.573,21.573,0,0,1-6.262,2.94,11.767,11.767,0,0,0-1.5-2.583,18.2,18.2,0,0,0,5.668-2.344A20.078,20.078,0,0,1,70.2,17.825l.711-.213H69.675V15.053h4.672V12.181h-5.1V9.553h5.1V6.129h2.8V9.553h5.311v2.627H77.149v2.872h2.843l.5-.118Zm-9.345,1.913a13.708,13.708,0,0,0,2.8,4.233,13.193,13.193,0,0,0,2.992-4.233Z" transform="translate(2449.629 7334.031)" fill="#2e2e2e"/>
      <path id="路径_21313" data-name="路径 21313" d="M90.5,16.467a15.123,15.123,0,0,1-3.94,7.176,17.77,17.77,0,0,0,4.626,1.768,11.422,11.422,0,0,0-1.8,2.462,16.329,16.329,0,0,1-5.1-2.388,19.973,19.973,0,0,1-5.17,2.294,9.59,9.59,0,0,0-1.4-2.367,2.1,2.1,0,0,1-.878,1.771,5.383,5.383,0,0,1-2.986.525,10.078,10.078,0,0,0-.717-2.657c.738.024,1.452.024,1.71.024s.354-.094.354-.381V19.935c-.638.407-1.253.812-1.824,1.169l-.688-1.721a30.012,30.012,0,0,1-1.473,8.54,10.513,10.513,0,0,0-2.251-1.293c1.233-3.277,1.3-8.059,1.3-11.527V6.421h7.474v7.153A4.552,4.552,0,0,0,80.613,9V6.445h7.972v5.237c0,.694.044.956.331.956h.925A4.908,4.908,0,0,0,91,12.473c.07.694.12,1.624.214,2.246a3.937,3.937,0,0,1-1.353.168H88.655c-2.254,0-2.705-.956-2.705-3.253V9.075H83.174a6.749,6.749,0,0,1-3.8,6.506,11.065,11.065,0,0,0-1.634-1.795V24.741a4.106,4.106,0,0,1-.023.549,16.857,16.857,0,0,0,4.412-1.7A16.953,16.953,0,0,1,79.1,18.929l1.162-.357h-1.71V15.918H88.2l.524-.121Zm-17.7-1.39c0,.983-.023,2.108-.067,3.256.708-.239,1.54-.552,2.462-.909V14.816l-.949.765a19.178,19.178,0,0,0-1.446-1.818Zm0-6.1v2.967l.667-.478c.568.546,1.209,1.193,1.727,1.792V8.98Zm8.92,9.591a11.553,11.553,0,0,0,2.585,3.395,11.027,11.027,0,0,0,2.562-3.395Z" transform="translate(2465.414 7334.601)" fill="#2e2e2e"/>
      <path id="路径_21314" data-name="路径 21314" d="M85.076,7.023A44.616,44.616,0,0,1,82.8,12V28.381H80.021V16.328c-.5.646-1,1.219-1.493,1.771a16.909,16.909,0,0,0-1.516-2.967,25.1,25.1,0,0,0,5.4-8.971ZM95.51,6.784A13.005,13.005,0,0,0,99.8,14.055a16.286,16.286,0,0,0-1.733,3.038,11.276,11.276,0,0,1-.922-.956c-.026.263-.026.6-.026.791-.284,6.719-.545,9.328-1.232,10.19a2.326,2.326,0,0,1-1.707,1,12.844,12.844,0,0,1-2.658.094,7.089,7.089,0,0,0-.732-2.583,16.437,16.437,0,0,0,1.944.094.812.812,0,0,0,.735-.334c.381-.5.615-2.32.831-6.984H91.312c-.618,4.806-2.251,7.941-5.717,9.9a11.817,11.817,0,0,0-1.871-2.1c3.009-1.435,4.388-4.018,4.839-7.8H86.379V15.947a10.19,10.19,0,0,1-.972.98,21.05,21.05,0,0,0-1.733-2.583A15.009,15.009,0,0,0,87.9,7.168l2.778.717a21.4,21.4,0,0,1-4.151,7.894H96.839a21.573,21.573,0,0,1-3.463-6.267H91.268V6.784Z" transform="translate(2480.919 7334.093)" fill="#2e2e2e"/>
      <path id="路径_21315" data-name="路径 21315" d="M94.219,11.7a15.619,15.619,0,0,1-.951,1.889H104.3V25.408c0,1.411-.263,2.179-1.235,2.607a10.357,10.357,0,0,1-4.2.478,11.827,11.827,0,0,0-.855-2.748c1.212.071,2.585.071,2.989.071.4-.027.547-.145.547-.478V23.9h-8.92a8.465,8.465,0,0,1-2.635,4.759,9.758,9.758,0,0,0-2.038-2.176c2.038-1.795,2.2-4.354,2.2-6.58V17.969a19.433,19.433,0,0,1-2.939,2.61,16.73,16.73,0,0,0-1.853-2.205A18.056,18.056,0,0,0,91.063,11.7H85.916V9.022h6.359a28.94,28.94,0,0,0,.946-2.893l2.919.673c-.237.741-.5,1.482-.758,2.22h11.573V11.7Zm7.331,9.83V19.977H93.03c0,.5-.021,1.007-.044,1.556Zm0-5.429H93.033v1.508h8.516Z" transform="translate(2497.029 7334.031)" fill="#2e2e2e"/>
      <path id="路径_21316" data-name="路径 21316" d="M101.785,7.488c-.618,2.01-1.4,4.425-2.043,6.27a7.784,7.784,0,0,1,1.71,4.974c0,1.532-.307,2.556-1.069,3.132a2.867,2.867,0,0,1-1.326.525,7.846,7.846,0,0,1-1.543.05A5.794,5.794,0,0,0,96.9,20a7.891,7.891,0,0,0,1.019.027.971.971,0,0,0,.641-.195,1.811,1.811,0,0,0,.427-1.408,6.8,6.8,0,0,0-1.66-4.381c.454-1.458.972-3.395,1.35-4.971h-2.3V27.892H93.907V6.531h5.647l.4-.118Zm12.785,12.3c-1.022.812-2.254,1.721-3.323,2.415a9.82,9.82,0,0,0,3.844,3.2,10.233,10.233,0,0,0-1.877,2.465c-3.534-1.96-5.434-5.644-6.546-10.332h-1.423v6.719l3.3-.741a17.1,17.1,0,0,0,.12,2.583c-4.626,1.2-5.507,1.556-6.072,1.916a9.007,9.007,0,0,0-1.212-2.226,2.361,2.361,0,0,0,1.092-2.081V6.555h10.721V17.536h-4.1a16.875,16.875,0,0,0,.949,2.607,22.979,22.979,0,0,0,2.7-2.367Zm-9.324-8.924h5.217V9h-5.217Zm0,4.21h5.217V13.158h-5.217Z" transform="translate(2513.487 7334.585)" fill="#2e2e2e"/>
      <path id="路径_21317" data-name="路径 21317" d="M111.233,7.345a35.962,35.962,0,0,1-7.067,10.477,26.538,26.538,0,0,0-2.515-2.438,25.039,25.039,0,0,0,6.429-9.068Zm6.646,10.978a76.056,76.056,0,0,1,5.267,8.254l-2.922,1.553c-.307-.67-.735-1.485-1.23-2.344-11.461.909-13.071,1.054-14.234,1.506a26.752,26.752,0,0,0-1.162-3.061,5.327,5.327,0,0,0,2.348-1.913,43.152,43.152,0,0,0,5.858-9.066l3.3,1.414a53.418,53.418,0,0,1-6.405,8.989l8.709-.573c-.761-1.2-1.546-2.438-2.281-3.492Zm.448-11.958a15.513,15.513,0,0,0,6.1,8.514,14.81,14.81,0,0,0-2.137,2.869,21.151,21.151,0,0,1-6.142-8.443h-3.8V6.365Z" transform="translate(2528.414 7334.394)" fill="#2e2e2e"/>
      <path id="路径_21318" data-name="路径 21318" d="M129.746,23.919c0,1.624-.287,2.486-1.306,2.987-.972.5-2.491.576-4.6.552a11.791,11.791,0,0,0-.925-3.085,32.761,32.761,0,0,0,3.343.044c.43,0,.594-.118.594-.522V9.327H110.293v-2.7h19.453ZM124.48,13.513H110.533V11.024H124.48Zm-9.986,9.854v1.724h-2.755V15.284h11.505v8.083Zm0-2.438h5.978V17.722h-5.978Z" transform="translate(2545.072 7334.995)" fill="#2e2e2e"/>
      <path id="路径_21319" data-name="路径 21319" d="M46.2,22a4.973,4.973,0,0,1-1.512,3.949,6.177,6.177,0,0,1-4.213,1.327H37.514V16.93H40.8a6.554,6.554,0,0,1,2.856.58,4.27,4.27,0,0,1,1.877,1.711A5.379,5.379,0,0,1,46.2,22m-2.3.058a3.59,3.59,0,0,0-.762-2.522,2.9,2.9,0,0,0-2.217-.814h-1.19v6.741h.953q3.214,0,3.216-3.4" transform="translate(2401.09 7351.118)" fill="#2e2e2e"/>
      <path id="路径_21320" data-name="路径 21320" d="M49.123,27.3l-.762-2.461H44.545L43.782,27.3H41.39l3.7-10.392H47.8L51.518,27.3ZM47.833,23l-.762-2.4c-.049-.168-.113-.374-.193-.623s-.157-.511-.234-.77-.142-.488-.191-.681c-.049.193-.116.432-.2.717s-.162.557-.234.814-.129.437-.17.544L45.1,23Z" transform="translate(2407.195 7351.091)" fill="#2e2e2e"/>
      <path id="路径_21321" data-name="路径 21321" d="M50.387,27.277H48.17V18.754H45.322V16.931h7.913v1.823H50.387Z" transform="translate(2413.387 7351.119)" fill="#2e2e2e"/>
      <path id="路径_21322" data-name="路径 21322" d="M56.128,27.3l-.762-2.461H51.55L50.787,27.3H48.4l3.7-10.392h2.714L58.523,27.3ZM54.838,23l-.762-2.4c-.049-.168-.113-.374-.193-.623s-.157-.511-.234-.77-.142-.488-.191-.681c-.049.193-.116.432-.2.717s-.162.557-.234.814-.129.437-.17.544L52.106,23Z" transform="translate(2418.229 7351.091)" fill="#2e2e2e"/>
      <path id="路径_21323" data-name="路径 21323" d="M57.747,18.7a2.251,2.251,0,0,0-1.952.941,4.351,4.351,0,0,0-.677,2.581,4.467,4.467,0,0,0,.626,2.558,2.26,2.26,0,0,0,2,.905,5.674,5.674,0,0,0,1.277-.145,12.483,12.483,0,0,0,1.393-.407v1.841a7.556,7.556,0,0,1-1.365.407,8.023,8.023,0,0,1-1.512.13,4.907,4.907,0,0,1-2.67-.659A3.919,3.919,0,0,1,53.329,25a7.228,7.228,0,0,1-.5-2.792,6.382,6.382,0,0,1,.574-2.769,4.394,4.394,0,0,1,1.664-1.884,4.994,4.994,0,0,1,2.681-.681,6.484,6.484,0,0,1,1.563.2,8.416,8.416,0,0,1,1.5.529L60.1,19.383a11.63,11.63,0,0,0-1.182-.481,3.61,3.61,0,0,0-1.167-.2" transform="translate(2425.213 7351.03)" fill="#2e2e2e"/>
      <path id="路径_21324" data-name="路径 21324" d="M66.612,22.186a6.853,6.853,0,0,1-.536,2.807,4.078,4.078,0,0,1-1.643,1.861,6.268,6.268,0,0,1-5.624,0,4.043,4.043,0,0,1-1.643-1.869,6.852,6.852,0,0,1-.536-2.812,6.737,6.737,0,0,1,.536-2.8,4.007,4.007,0,0,1,1.643-1.849,5.462,5.462,0,0,1,2.827-.661,5.383,5.383,0,0,1,2.8.661,4.038,4.038,0,0,1,1.638,1.854,6.849,6.849,0,0,1,.536,2.8m-7.648,0a4.533,4.533,0,0,0,.631,2.56,2.681,2.681,0,0,0,4.066,0,4.6,4.6,0,0,0,.615-2.56,4.6,4.6,0,0,0-.615-2.558,2.242,2.242,0,0,0-2.024-.933,2.287,2.287,0,0,0-2.042.933,4.53,4.53,0,0,0-.631,2.558" transform="translate(2431.201 7351.021)" fill="#2e2e2e"/>
      <path id="路径_21325" data-name="路径 21325" d="M66.068,27.277l-2.524-8.116h-.059l.044.87c.018.386.039.8.059,1.248s.028.839.028,1.185v4.813h-1.98V16.931h3.023l2.48,7.91h.044l2.629-7.91h3.023V27.277h-2.07v-4.9q0-.492.023-1.129c.013-.425.028-.829.044-1.21s.026-.669.036-.865h-.059l-2.7,8.1Z" transform="translate(2439.085 7351.119)" fill="#2e2e2e"/>
      <path id="路径_21326" data-name="路径 21326" d="M73.728,27.277H71.514V18.754H68.663V16.931h7.913v1.823H73.728Z" transform="translate(2450.153 7351.119)" fill="#2e2e2e"/>
      <path id="路径_21327" data-name="路径 21327" d="M78.679,27.277H72.648V16.931h6.031v1.8H74.863V21h3.551v1.8H74.863v2.667h3.816Z" transform="translate(2456.43 7351.119)" fill="#2e2e2e"/>
      <path id="路径_21328" data-name="路径 21328" d="M80.859,18.7a2.255,2.255,0,0,0-1.952.941,4.351,4.351,0,0,0-.675,2.581,4.467,4.467,0,0,0,.626,2.558,2.256,2.256,0,0,0,2,.905,5.658,5.658,0,0,0,1.277-.145,12.175,12.175,0,0,0,1.393-.407v1.841a7.47,7.47,0,0,1-1.362.407,8.071,8.071,0,0,1-1.514.13,4.907,4.907,0,0,1-2.67-.659A3.914,3.914,0,0,1,76.443,25a7.18,7.18,0,0,1-.5-2.792,6.381,6.381,0,0,1,.572-2.769,4.4,4.4,0,0,1,1.666-1.884,4.985,4.985,0,0,1,2.678-.681,6.484,6.484,0,0,1,1.563.2,8.275,8.275,0,0,1,1.5.529l-.718,1.785a11.631,11.631,0,0,0-1.182-.481,3.6,3.6,0,0,0-1.167-.2" transform="translate(2461.62 7351.03)" fill="#2e2e2e"/>
      <path id="路径_21329" data-name="路径 21329" d="M88.626,27.277H86.409V22.812H82.253v4.465H80.041V16.931h2.212v4.056h4.156V16.931h2.217Z" transform="translate(2468.075 7351.119)" fill="#2e2e2e"/>
      <path id="路径_21330" data-name="路径 21330" d="M93.977,27.277h-2.82l-4.563-7.826h-.059c.021.493.041.987.067,1.477s.044.987.064,1.48v4.869h-1.98V16.931h2.8l4.55,7.75h.046c-.021-.47-.041-.946-.062-1.419s-.031-.951-.041-1.437V16.931h2Z" transform="translate(2475.392 7351.119)" fill="#2e2e2e"/>
      <path id="路径_21331" data-name="路径 21331" d="M99.406,22.186a6.852,6.852,0,0,1-.538,2.807,4.078,4.078,0,0,1-1.643,1.861,6.263,6.263,0,0,1-5.622,0,4.043,4.043,0,0,1-1.643-1.869,6.851,6.851,0,0,1-.538-2.812,6.736,6.736,0,0,1,.538-2.8A4.007,4.007,0,0,1,91.6,17.528a5.459,5.459,0,0,1,2.825-.661,5.386,5.386,0,0,1,2.8.661,4.033,4.033,0,0,1,1.635,1.854,6.848,6.848,0,0,1,.538,2.8m-7.651,0a4.512,4.512,0,0,0,.633,2.56,2.678,2.678,0,0,0,4.064,0,4.6,4.6,0,0,0,.618-2.56,4.6,4.6,0,0,0-.618-2.558,2.242,2.242,0,0,0-2.024-.933,2.282,2.282,0,0,0-2.04.933,4.509,4.509,0,0,0-.633,2.558" transform="translate(2482.852 7351.021)" fill="#2e2e2e"/>
      <path id="路径_21332" data-name="路径 21332" d="M94.428,27.277V16.931H96.64v8.533H100.9v1.813Z" transform="translate(2490.736 7351.119)" fill="#2e2e2e"/>
      <path id="路径_21333" data-name="路径 21333" d="M107.616,22.186a6.854,6.854,0,0,1-.533,2.807,4.069,4.069,0,0,1-1.646,1.861,6.268,6.268,0,0,1-5.624,0,4.043,4.043,0,0,1-1.643-1.869,6.853,6.853,0,0,1-.533-2.812,6.737,6.737,0,0,1,.533-2.8,4.007,4.007,0,0,1,1.643-1.849,5.469,5.469,0,0,1,2.827-.661,5.37,5.37,0,0,1,2.8.661,4.043,4.043,0,0,1,1.64,1.854,6.85,6.85,0,0,1,.533,2.8m-7.646,0a4.534,4.534,0,0,0,.628,2.56,2.684,2.684,0,0,0,4.069,0,4.622,4.622,0,0,0,.615-2.56,4.619,4.619,0,0,0-.615-2.558,2.247,2.247,0,0,0-2.027-.933,2.287,2.287,0,0,0-2.042.933,4.53,4.53,0,0,0-.628,2.558" transform="translate(2495.791 7351.021)" fill="#2e2e2e"/>
      <path id="路径_21334" data-name="路径 21334" d="M106.908,21.554h4.154v5.363a12.023,12.023,0,0,1-1.718.435,11.5,11.5,0,0,1-2.011.16,4.666,4.666,0,0,1-3.608-1.36,5.637,5.637,0,0,1-1.267-3.974,5.887,5.887,0,0,1,.631-2.81,4.4,4.4,0,0,1,1.857-1.841,6.3,6.3,0,0,1,2.985-.653,7.893,7.893,0,0,1,1.646.175,7.5,7.5,0,0,1,1.468.463l-.734,1.754a5.329,5.329,0,0,0-1.1-.407,5.122,5.122,0,0,0-1.29-.158,3.177,3.177,0,0,0-1.684.435,2.912,2.912,0,0,0-1.1,1.231,4.208,4.208,0,0,0-.389,1.856,5.3,5.3,0,0,0,.281,1.8,2.516,2.516,0,0,0,.881,1.223,2.586,2.586,0,0,0,1.573.442,5.732,5.732,0,0,0,.788-.046c.216-.025.42-.061.618-.1V23.382h-1.98Z" transform="translate(2503.385 7351.03)" fill="#2e2e2e"/>
      <path id="路径_21335" data-name="路径 21335" d="M111.121,21.192l2.189-4.262H115.7l-3.474,6.319v4.03h-2.2V23.323l-3.479-6.392h2.408Z" transform="translate(2509.813 7351.119)" fill="#2e2e2e"/>
      <path id="路径_21336" data-name="路径 21336" d="M117.4,18.7a2.251,2.251,0,0,0-1.952.941,4.333,4.333,0,0,0-.677,2.581,4.488,4.488,0,0,0,.626,2.558,2.26,2.26,0,0,0,2,.905,5.691,5.691,0,0,0,1.277-.145,12.327,12.327,0,0,0,1.393-.407v1.841a7.594,7.594,0,0,1-1.362.407,8.09,8.09,0,0,1-1.514.13,4.907,4.907,0,0,1-2.67-.659A3.919,3.919,0,0,1,112.979,25a7.18,7.18,0,0,1-.5-2.792,6.345,6.345,0,0,1,.574-2.769,4.393,4.393,0,0,1,1.664-1.884,4.994,4.994,0,0,1,2.681-.681,6.485,6.485,0,0,1,1.563.2,8.347,8.347,0,0,1,1.5.529l-.718,1.785a11.63,11.63,0,0,0-1.182-.481,3.61,3.61,0,0,0-1.167-.2" transform="translate(2519.169 7351.03)" fill="#2e2e2e"/>
      <path id="路径_21337" data-name="路径 21337" d="M126.26,22.186a6.853,6.853,0,0,1-.533,2.807,4.069,4.069,0,0,1-1.646,1.861,6.268,6.268,0,0,1-5.624,0,4.043,4.043,0,0,1-1.643-1.869,6.853,6.853,0,0,1-.533-2.812,6.737,6.737,0,0,1,.533-2.8,4.007,4.007,0,0,1,1.643-1.849,5.469,5.469,0,0,1,2.827-.661,5.387,5.387,0,0,1,2.8.661,4.053,4.053,0,0,1,1.638,1.854,6.849,6.849,0,0,1,.533,2.8m-7.643,0a4.534,4.534,0,0,0,.626,2.56,2.684,2.684,0,0,0,4.069,0,4.622,4.622,0,0,0,.615-2.56,4.619,4.619,0,0,0-.615-2.558,2.247,2.247,0,0,0-2.027-.933,2.287,2.287,0,0,0-2.042.933,4.531,4.531,0,0,0-.626,2.558" transform="translate(2525.158 7351.021)" fill="#2e2e2e"/>
      <path id="路径_21338" data-name="路径 21338" d="M124.337,16.931a5.278,5.278,0,0,1,3.165.768,2.732,2.732,0,0,1,1.02,2.334,2.7,2.7,0,0,1-.27,1.238,2.832,2.832,0,0,1-.718.9,4.328,4.328,0,0,1-.961.6l3.082,4.506h-2.47l-2.5-3.969H123.5v3.969h-2.217V16.931Zm-.16,1.8H123.5v2.8h.721a2.649,2.649,0,0,0,1.576-.364,1.257,1.257,0,0,0,.476-1.073,1.13,1.13,0,0,0-.515-1.05,3.126,3.126,0,0,0-1.584-.313" transform="translate(2533.04 7351.119)" fill="#2e2e2e"/>
      <path id="路径_21339" data-name="路径 21339" d="M128.68,16.931a4.245,4.245,0,0,1,2.956.862,3.056,3.056,0,0,1,.935,2.367,3.806,3.806,0,0,1-.384,1.7,2.853,2.853,0,0,1-1.27,1.264,5.125,5.125,0,0,1-2.413.475h-.955v3.682h-2.217V16.931Zm-.118,1.8h-1.012V21.8h.736a2.641,2.641,0,0,0,1.488-.371,1.333,1.333,0,0,0,.551-1.2q0-1.507-1.764-1.508" transform="translate(2539.415 7351.119)" fill="#2e2e2e"/>
      <path id="路径_21340" data-name="路径 21340" d="M128.268,21.331a1.079,1.079,0,0,1,.368-.933,1.481,1.481,0,0,1,.894-.27,1.458,1.458,0,0,1,.881.27,1.072,1.072,0,0,1,.368.933,1.08,1.08,0,0,1-.368.92,1.389,1.389,0,0,1-.881.285,1.41,1.41,0,0,1-.894-.285,1.087,1.087,0,0,1-.368-.92" transform="translate(2544.039 7356.051)" fill="#2e2e2e"/>
      <path id="矩形_1522" data-name="矩形 1522" d="M0,0H37.864V7.861H0Z" transform="translate(2367.956 7378.706)" fill="url(#linear-gradient)"/>
      <g id="组_13059" data-name="组 13059" transform="translate(2375.514 7379.559)">
        <path id="路径_21302" data-name="路径 21302" d="M6.783,21.64H7.868a6.4,6.4,0,0,1,1.419.1,1.057,1.057,0,0,1,.561.328,1.041,1.041,0,0,1,.242.506,7.765,7.765,0,0,1,.049,1.1v2.019a5.015,5.015,0,0,1-.07,1.039.788.788,0,0,1-.247.409.975.975,0,0,1-.435.207,3.6,3.6,0,0,1-.777.061H6.783Zm1.449.985v3.8c.209,0,.338-.044.385-.129a1.945,1.945,0,0,0,.073-.708V23.341a3.393,3.393,0,0,0-.023-.5.245.245,0,0,0-.11-.163.71.71,0,0,0-.324-.051" transform="translate(-6.783 -21.516)" fill="#fff"/>
        <path id="路径_21303" data-name="路径 21303" d="M11.542,21.64l.829,5.769H10.889l-.078-1.037h-.519l-.087,1.037h-1.5l.74-5.769Zm-.768,3.708q-.109-.982-.221-2.423-.222,1.657-.277,2.423Z" transform="translate(-4.812 -21.516)" fill="#fff"/>
        <path id="路径_21304" data-name="路径 21304" d="M13.6,21.64V22.8h-.86v4.613H11.293V22.8h-.857V21.64Z" transform="translate(-2.877 -21.516)" fill="#fff"/>
        <path id="路径_21305" data-name="路径 21305" d="M14.809,21.64l.827,5.769h-1.48l-.078-1.037h-.521l-.087,1.037h-1.5l.742-5.769Zm-.768,3.708c-.073-.655-.146-1.462-.223-2.423-.148,1.1-.237,1.912-.277,2.423Z" transform="translate(-1.249 -21.516)" fill="#fff"/>
        <path id="路径_21306" data-name="路径 21306" d="M17.045,24.224H15.6v-1a2.024,2.024,0,0,0-.045-.547.2.2,0,0,0-.207-.107.211.211,0,0,0-.225.131,2.021,2.021,0,0,0-.049.569v2.681a1.912,1.912,0,0,0,.049.55.244.244,0,0,0,.427,0,2.215,2.215,0,0,0,.049-.6v-.728h1.449v.224a4.652,4.652,0,0,1-.122,1.273,1.3,1.3,0,0,1-.54.655,1.791,1.791,0,0,1-1.031.285,2.08,2.08,0,0,1-1.048-.241,1.128,1.128,0,0,1-.547-.659,4.484,4.484,0,0,1-.136-1.27V23.747a7.617,7.617,0,0,1,.042-.937,1.306,1.306,0,0,1,.247-.6,1.366,1.366,0,0,1,.568-.457,2.25,2.25,0,0,1,1.889.09,1.224,1.224,0,0,1,.547.64,4,4,0,0,1,.132,1.19Z" transform="translate(1.307 -21.589)" fill="#fff"/>
        <path id="路径_21307" data-name="路径 21307" d="M18.633,25.09c0,.582-.014.99-.04,1.231a1.459,1.459,0,0,1-.247.662,1.39,1.39,0,0,1-.564.46,2.2,2.2,0,0,1-1.63.007A1.311,1.311,0,0,1,15.579,27a1.373,1.373,0,0,1-.256-.659,12.267,12.267,0,0,1-.042-1.246V24.1c0-.579.012-.99.04-1.231a1.4,1.4,0,0,1,.247-.659,1.346,1.346,0,0,1,.564-.462,1.979,1.979,0,0,1,.824-.161,2.075,2.075,0,0,1,.806.151,1.345,1.345,0,0,1,.571.457,1.387,1.387,0,0,1,.258.657,12.359,12.359,0,0,1,.042,1.248Zm-1.449-1.9a1.883,1.883,0,0,0-.042-.516.173.173,0,0,0-.179-.112.189.189,0,0,0-.171.09,1.294,1.294,0,0,0-.061.538v2.693a2.593,2.593,0,0,0,.04.618.166.166,0,0,0,.183.119.175.175,0,0,0,.188-.136,2.864,2.864,0,0,0,.042-.642Z" transform="translate(3.611 -21.588)" fill="#fff"/>
        <path id="路径_21308" data-name="路径 21308" d="M21.408,21.64v5.769H20.142l0-3.9-.5,3.9h-.9L18.206,23.6l0,3.805H16.938V21.64h1.874c.056.348.113.757.171,1.226l.207,1.467.334-2.693Z" transform="translate(6.09 -21.516)" fill="#fff"/>
      </g>
    </g>
  </g>
</svg>
