<svg xmlns="http://www.w3.org/2000/svg" xmlns:xlink="http://www.w3.org/1999/xlink" width="44" height="40" viewBox="0 0 44 40">
  <defs>
    <clipPath id="clip-待簽章">
      <rect width="44" height="40"/>
    </clipPath>
  </defs>
  <g id="待簽章" clip-path="url(#clip-待簽章)">
    <g id="组_5179" data-name="组 5179">
      <path id="路径_13924" data-name="路径 13924" d="M2.988,0H21.954a3.281,3.281,0,0,1,2.995,3.507V31.88l2.2.849c0,1.937-3.541,3.507-5.195,3.507H2.988A3.281,3.281,0,0,1-.006,32.729V4.7L-3.37,4.181C-3.37,2.245,1.335,0,2.988,0Z" transform="translate(5.913 2.092)" fill="#fff"/>
      <path id="路径_13923" data-name="路径 13923" d="M-11561.422,8866.323c-1.7,0-3.087-.37-3.087-2.263v-28.486H-11569v-1.144a3.276,3.276,0,0,1,3.089-3.43h23.077a3.274,3.274,0,0,1,3.087,3.43v27.317h2.494v1.144a3.274,3.274,0,0,1-3.086,3.43h-2.186v0Zm21.083-.763a2.55,2.55,0,0,0,2.4-2.669v-.38h-20.395v.38a3.579,3.579,0,0,1-1.151,2.669h19.144Zm-23.483-31.13v29.63c0,1.471,1.079,1.5,2.4,1.5a2.551,2.551,0,0,0,2.4-2.669v-1.144h18.587v-27.317a2.549,2.549,0,0,0-2.4-2.669h-22.138A3.579,3.579,0,0,1-11563.822,8834.431Zm-4.49,0v.38h3.8v-.38c0-1.471-.077-2.669-1.4-2.669A2.548,2.548,0,0,0-11568.312,8834.431Z" transform="translate(11570.914 -8828.354)" fill="#587ff9" stroke="#587ff9" stroke-width="1"/>
      <g id="路径_13919" data-name="路径 13919" transform="translate(12.634 20.851) rotate(30)" fill="#fff">
        <path d="M 2.784088850021362 4.708849430084229 C 2.738088846206665 4.708849430084229 2.688688993453979 4.703829288482666 2.637259006500244 4.693929195404053 C 1.923918962478638 4.556669235229492 0.9918689727783203 3.510889291763306 0.7949389815330505 2.229689359664917 C 0.7091389298439026 1.671429395675659 0.7896689772605896 1.184579372406006 1.010358929634094 0.9273694157600403 C 1.109118938446045 0.812269389629364 1.225948929786682 0.7586593627929688 1.378008961677551 0.7586593627929688 C 1.423998951911926 0.7586593627929688 1.473398923873901 0.7636693716049194 1.524828910827637 0.7735694050788879 C 2.238148927688599 0.9108293652534485 3.170208930969238 1.956619381904602 3.367138862609863 3.237809419631958 C 3.452949047088623 3.796079397201538 3.372418880462646 4.282939434051514 3.151718854904175 4.540149211883545 C 3.052958965301514 4.655239582061768 2.936138868331909 4.708849430084229 2.784088850021362 4.708849430084229 Z" stroke="none"/>
        <path d="M 2.630274295806885 3.900184154510498 C 2.65278172492981 3.781858921051025 2.663949489593506 3.59968090057373 2.625838994979858 3.351749420166016 C 2.488253593444824 2.456632375717163 1.908487319946289 1.770897030830383 1.531779170036316 1.567303419113159 C 1.509283065795898 1.685629725456238 1.498128414154053 1.867812037467957 1.5362389087677 2.115749359130859 C 1.673824191093445 3.010875225067139 2.25356125831604 3.696592330932617 2.630274295806885 3.900184154510498 M 2.784073829650879 5.458845615386963 C 2.691296815872192 5.458844184875488 2.594974279403687 5.449553489685059 2.495538949966431 5.430419445037842 C 1.375838994979858 5.214969158172607 0.2825689613819122 3.832959413528442 0.05364895239472389 2.343629360198975 C -0.1752710342407227 0.8542994856834412 0.5468485951423645 -0.1783707588911057 1.666538953781128 0.03707939013838768 C 2.7862389087677 0.2525393962860107 3.879508972167969 1.634539365768433 4.108428955078125 3.1238694190979 C 4.317019462585449 4.480937957763672 3.736008644104004 5.458861351013184 2.784073829650879 5.458845615386963 Z" stroke="none" fill="#b9c7f3"/>
      </g>
      <path id="路径_13912" data-name="路径 13912" d="M17.436,4.165S13.924.1,12.191.309s1.353,3.772.529,3.563C11.323,3.516,9.027-.052,8.189.021c-2.667.233,2.137,3.8-.01,4.3-.919.212-1.6-1.186-2.953-2.591C3.792.242,1.514,3.635,0,.516" transform="matrix(0.985, 0.174, -0.174, 0.985, 9.202, 19.928)" fill="none" stroke="#b9c7f3" stroke-linecap="round" stroke-width="1.5"/>
      <g id="路径_13919-2" data-name="路径 13919" transform="translate(12.342 19.62) rotate(30)" fill="#fff">
        <path d="M 2.789160966873169 4.708883762359619 C 2.78914213180542 4.708883762359619 2.789137125015259 4.708883762359619 2.78911828994751 4.708883762359619 C 2.74271821975708 4.708883762359619 2.692948341369629 4.70384407043457 2.641178369522095 4.69391393661499 C 1.925538301467896 4.556633949279785 0.9912183284759521 3.511023998260498 0.7947283387184143 2.230123996734619 C 0.7092483043670654 1.672963976860046 0.7901183366775513 1.18666398525238 1.011048316955566 0.9292639493942261 C 1.110928297042847 0.8128839731216431 1.229218363761902 0.758683979511261 1.383318305015564 0.758683979511261 C 1.429678320884705 0.758683979511261 1.479438304901123 0.7637239694595337 1.531218290328979 0.7736539840698242 C 2.246858358383179 0.9109339714050293 3.181178331375122 1.956543922424316 3.377668380737305 3.237443923950195 C 3.463148355484009 3.794623851776123 3.382278442382812 4.280943870544434 3.161338329315186 4.538343906402588 C 3.061470508575439 4.654689788818359 2.943203449249268 4.708883762359619 2.789160966873169 4.708883762359619 Z" stroke="none"/>
        <path d="M 2.639436721801758 3.903402328491211 C 2.662680864334106 3.785553932189941 2.674848079681396 3.602168083190918 2.636338233947754 3.351163864135742 C 2.498353958129883 2.451643466949463 1.91099488735199 1.763524174690247 1.532942056655884 1.564156055450439 C 1.509708404541016 1.68200159072876 1.497548699378967 1.865399837493896 1.536058306694031 2.116404056549072 C 1.674042582511902 3.015924453735352 2.261383771896362 3.704034328460693 2.639436721801758 3.903402328491211 M 2.789074420928955 5.458881378173828 C 2.69609522819519 5.458876609802246 2.599521636962891 5.44959545135498 2.49988842010498 5.430483818054199 C 1.377208352088928 5.215124130249023 0.2818683385848999 3.833194017410278 0.05339832976460457 2.343843936920166 C -0.17508165538311 0.8545040488243103 0.5498171448707581 -0.1782661974430084 1.672508358955383 0.03708396106958389 C 2.795188426971436 0.2524439692497253 3.890528440475464 1.634373903274536 4.118998527526855 3.123723983764648 C 4.327201843261719 4.480892181396484 3.743805646896362 5.458931446075439 2.789074420928955 5.458881378173828 Z" stroke="none" fill="#f39859"/>
      </g>
      <path id="路径_13912-2" data-name="路径 13912" d="M17.935,4.822S13.481.1,11.745.312s1.358,3.774.532,3.564C10.875,3.518,8.571-.052,7.731.02c-2.674.231,2.143,3.8-.009,4.3-.921.211-1.6-1.187-2.962-2.594C3.322.237,2.3,4.373,0,1.519" transform="matrix(0.985, 0.174, -0.174, 0.985, 9.374, 18.785)" fill="none" stroke="#f39859" stroke-linecap="round" stroke-width="1.5"/>
      <path id="路径_13886" data-name="路径 13886" d="M0,0,2.516,19.379l.156,1.2.223,1.715,3.453,3.791L8.91,23.017,8.687,21.3l-.156-1.2L6.015.722Z" transform="matrix(0.766, 0.643, -0.643, 0.766, 37.43, 3.846)" fill="#ecf0f1"/>
      <path id="路径_13887" data-name="路径 13887" d="M0,0,3.34,25.724,5.9,22.655,5.68,20.941l-.156-1.2L3.008.361Z" transform="matrix(0.766, 0.643, -0.643, 0.766, 39.501, 6.055)" fill="#bdc3c7"/>
      <path id="路径_13909" data-name="路径 13909" d="M0,0,6.015.722,8.465,19.587l-6.015-.722Z" transform="matrix(0.766, 0.643, -0.643, 0.766, 36.497, 5.302)" fill="#ec8238"/>
      <path id="路径_13916" data-name="路径 13916" d="M4.2,28.253,6.31,28.5l2.115.257-1.8,2.148ZM3.5,6.9l3.011.364L8.962,26.121l-3.009-.359ZM.051,3.1C-.191,1.221.953-.163,2.615.035A4.424,4.424,0,0,1,6.069,3.829l.223,1.715L.274,4.821Z" transform="matrix(0.766, 0.643, -0.643, 0.766, 40.316, -0.024)" fill="#0047ec" opacity="0.78"/>
      <path id="路径_13891" data-name="路径 13891" d="M2.614.036C.952-.164-.193,1.218.052,3.1L.274,4.819l3.008.361Z" transform="matrix(0.766, 0.643, -0.643, 0.766, 40.316, -0.023)" fill="#f39859"/>
      <path id="路径_13922" data-name="路径 13922" d="M11974.087-8438.341l4.03-.771-4.163-4.511Z" transform="translate(-11948.621 8466.33)" fill="#ec8238"/>
      <rect id="矩形_5132" data-name="矩形 5132" width="15.625" height="2.338" transform="translate(9.937 6.767)" fill="#4875ff"/>
      <rect id="矩形_5133" data-name="矩形 5133" width="9.797" height="2.338" transform="translate(9.937 11.133)" fill="#4875ff"/>
    </g>
  </g>
</svg>
