<svg xmlns="http://www.w3.org/2000/svg" xmlns:xlink="http://www.w3.org/1999/xlink" width="123" height="105" viewBox="0 0 123 105">
  <defs>
    <linearGradient id="linear-gradient" x1="0.5" x2="0.5" y2="1" gradientUnits="objectBoundingBox">
      <stop offset="0" stop-color="#57c4b5"/>
      <stop offset="1" stop-color="#00ae96"/>
    </linearGradient>
    <filter id="_" x="21" y="7" width="31" height="48" filterUnits="userSpaceOnUse">
      <feOffset dy="3" input="SourceAlpha"/>
      <feGaussianBlur stdDeviation="3" result="blur"/>
      <feFlood flood-opacity="0.161"/>
      <feComposite operator="in" in2="blur"/>
      <feComposite in="SourceGraphic"/>
    </filter>
    <linearGradient id="linear-gradient-3" x1="0.5" x2="0.5" y2="1" gradientUnits="objectBoundingBox">
      <stop offset="0" stop-color="#13b39d"/>
      <stop offset="1" stop-color="#fff"/>
    </linearGradient>
    <clipPath id="clip-合作醫院">
      <rect width="123" height="105"/>
    </clipPath>
    <clipPath id="clip">
      <use xlink:href="#fill"/>
    </clipPath>
    <clipPath id="clip-2">
      <use xlink:href="#fill-2"/>
    </clipPath>
  </defs>
  <g id="合作醫院" clip-path="url(#clip-合作醫院)">
    <g id="组_13007" data-name="组 13007" transform="translate(1.079 1.486)">
      <rect id="矩形_7541" data-name="矩形 7541" width="64.55" height="102.139" transform="translate(54.22 0)" fill="url(#linear-gradient)"/>
      <rect id="矩形_7542" data-name="矩形 7542" width="55.757" height="71.328" transform="translate(54.22 5.722)" fill="#13b39d"/>
      <path id="路径_20263" data-name="路径 20263" d="M0-1.9,55.757-5.592V94.518H0Z" transform="translate(0 7.622)" fill="#086a5c"/>
      <rect id="矩形_7543" data-name="矩形 7543" width="46.224" height="96.418" transform="translate(0 5.722)" fill="url(#linear-gradient)"/>
      <path id="路径_20264" data-name="路径 20264" d="M0-1.18,6.07-4.264V97.876H0Z" transform="translate(114.237 4.264)" fill="#086a5c"/>
      <rect id="矩形_7544" data-name="矩形 7544" width="7.684" height="30.646" transform="translate(106.552 71.494)" fill="#086a5c"/>
      <rect id="矩形_7545" data-name="矩形 7545" width="7.684" height="25.09" transform="translate(106.552 77.05)" fill="#086a5c"/>
      <g id="组_12986" data-name="组 12986" transform="translate(4.155 11.148)">
        <rect id="矩形_7546" data-name="矩形 7546" width="9.99" height="8.583" fill="#fff"/>
        <rect id="矩形_7547" data-name="矩形 7547" width="9.99" height="8.583" transform="translate(12.295)" fill="#fff"/>
        <rect id="矩形_7548" data-name="矩形 7548" width="9.99" height="8.583" transform="translate(24.591)" fill="#fff"/>
        <rect id="矩形_7549" data-name="矩形 7549" width="9.99" height="8.583" transform="translate(0 10.564)" fill="#fff"/>
        <rect id="矩形_7550" data-name="矩形 7550" width="9.99" height="8.583" transform="translate(12.295 10.564)" fill="#fff"/>
        <rect id="矩形_7551" data-name="矩形 7551" width="9.99" height="8.583" transform="translate(24.591 10.564)" fill="#fff"/>
        <rect id="矩形_7552" data-name="矩形 7552" width="9.99" height="8.583" transform="translate(0 21.128)" fill="#fff"/>
        <rect id="矩形_7553" data-name="矩形 7553" width="9.99" height="8.583" transform="translate(12.295 21.128)" fill="#fff"/>
        <rect id="矩形_7554" data-name="矩形 7554" width="9.99" height="8.583" transform="translate(24.591 21.128)" fill="#fff"/>
        <rect id="矩形_7555" data-name="矩形 7555" width="9.99" height="8.583" transform="translate(0 31.692)" fill="#fff"/>
        <rect id="矩形_7556" data-name="矩形 7556" width="9.99" height="8.583" transform="translate(12.295 31.692)" fill="#fff"/>
        <rect id="矩形_7557" data-name="矩形 7557" width="9.99" height="8.583" transform="translate(24.591 31.692)" fill="#fff"/>
        <rect id="矩形_7558" data-name="矩形 7558" width="9.99" height="8.583" transform="translate(0 42.256)" fill="#fff"/>
        <rect id="矩形_7559" data-name="矩形 7559" width="9.99" height="8.583" transform="translate(12.295 42.256)" fill="#fff"/>
        <rect id="矩形_7560" data-name="矩形 7560" width="9.99" height="8.583" transform="translate(24.591 42.256)" fill="#fff"/>
        <rect id="矩形_7561" data-name="矩形 7561" width="9.99" height="8.583" transform="translate(0 52.82)" fill="#fff"/>
        <rect id="矩形_7562" data-name="矩形 7562" width="9.99" height="8.583" transform="translate(12.295 52.82)" fill="#fff"/>
        <rect id="矩形_7563" data-name="矩形 7563" width="9.99" height="8.583" transform="translate(24.591 52.82)" fill="#fff"/>
      </g>
      <g id="组_12987" data-name="组 12987" transform="translate(60.179 11.148)">
        <g id="组_11372" data-name="组 11372">
          <rect id="矩形_7076" data-name="矩形 7076" width="9.99" height="8.583" fill="#fff"/>
          <rect id="矩形_7077" data-name="矩形 7077" width="9.99" height="8.583" transform="translate(12.295)" fill="#fff"/>
          <rect id="矩形_7078" data-name="矩形 7078" width="9.99" height="8.583" transform="translate(24.59)" fill="#fff"/>
          <rect id="矩形_7079" data-name="矩形 7079" width="9.99" height="8.583" transform="translate(36.886)" fill="#fff"/>
        </g>
        <g id="组_11373" data-name="组 11373" transform="translate(0 10.564)">
          <rect id="矩形_7076-2" data-name="矩形 7076" width="9.99" height="8.583" transform="translate(0 0)" fill="#fff"/>
          <rect id="矩形_7077-2" data-name="矩形 7077" width="9.99" height="8.583" transform="translate(12.295 0)" fill="#fff"/>
          <rect id="矩形_7078-2" data-name="矩形 7078" width="9.99" height="8.583" transform="translate(24.59 0)" fill="#fff"/>
          <rect id="矩形_7079-2" data-name="矩形 7079" width="9.99" height="8.583" transform="translate(36.886 0)" fill="#fff"/>
        </g>
        <g id="组_11374" data-name="组 11374" transform="translate(0 21.128)">
          <rect id="矩形_7076-3" data-name="矩形 7076" width="9.99" height="8.583" transform="translate(0 0)" fill="#fff"/>
          <rect id="矩形_7077-3" data-name="矩形 7077" width="9.99" height="8.583" transform="translate(12.295 0)" fill="#fff"/>
          <rect id="矩形_7078-3" data-name="矩形 7078" width="9.99" height="8.583" transform="translate(24.59 0)" fill="#fff"/>
          <rect id="矩形_7079-3" data-name="矩形 7079" width="9.99" height="8.583" transform="translate(36.886 0)" fill="#fff"/>
        </g>
        <g id="组_11375" data-name="组 11375" transform="translate(0 31.692)">
          <rect id="矩形_7076-4" data-name="矩形 7076" width="9.99" height="8.583" transform="translate(0 0)" fill="#fff"/>
          <rect id="矩形_7077-4" data-name="矩形 7077" width="9.99" height="8.583" transform="translate(12.295 0)" fill="#fff"/>
          <rect id="矩形_7078-4" data-name="矩形 7078" width="9.99" height="8.583" transform="translate(24.59 0)" fill="#fff"/>
          <rect id="矩形_7079-4" data-name="矩形 7079" width="9.99" height="8.583" transform="translate(36.886 0)" fill="#fff"/>
        </g>
        <g id="组_11376" data-name="组 11376" transform="translate(0 44.237)">
          <rect id="矩形_7076-5" data-name="矩形 7076" width="9.99" height="8.583" transform="translate(0 0)" fill="#fff"/>
          <rect id="矩形_7077-5" data-name="矩形 7077" width="9.99" height="8.583" transform="translate(12.295 0)" fill="#fff"/>
          <rect id="矩形_7078-5" data-name="矩形 7078" width="9.99" height="8.583" transform="translate(24.59 0)" fill="#fff"/>
          <rect id="矩形_7079-5" data-name="矩形 7079" width="9.99" height="8.583" transform="translate(36.886 0)" fill="#fff"/>
        </g>
      </g>
      <path id="路径_20266" data-name="路径 20266" d="M15.489,16.717h39.28L45.54,23.9H-1.04V20.681Z" transform="translate(1.04 -16.717)" fill="#108d7b"/>
      <path id="路径_20267" data-name="路径 20267" d="M133.212,16.717l-5.63,3.083H68.561l-9.6,3.42,9.6-6.5Z" transform="translate(-12.853 -16.717)" fill="#108d7b"/>
      <rect id="矩形_7564" data-name="矩形 7564" width="7.684" height="24.038" transform="translate(40.134 78.102)" fill="#0b9e8a"/>
      <g transform="matrix(1, 0, 0, 1, -1.08, -1.49)" filter="url(#_)">
        <text id="_2" data-name="+" transform="matrix(-1, 0, 0, 1, 43, 37)" fill="#ff0440" font-size="21" font-family="SourceHanSansTW-Bold, Source Han Sans TW" font-weight="700"><tspan x="0" y="0">+</tspan></text>
      </g>
      <g id="组_9856" data-name="组 9856" transform="translate(55.757 78.102)">
        <rect id="矩形_4798" data-name="矩形 4798" width="50.36" height="24.037" transform="translate(0.035 0)" fill="url(#linear-gradient-3)"/>
        <g id="矩形_4822" data-name="矩形 4822" transform="translate(24.815 0.988)" fill="#6683c4" stroke="#086a5c" stroke-width="1">
          <rect id="fill" width="0.799" height="23.049" stroke="none"/>
          <path d="M0,0.5h0.7993685007095337M0.5,0v23.04905128479004M0.7993685007095337,22.54905128479004h-0.7993685007095337M0.2993685007095337,23.04905128479004v-23.04905128479004" fill="none" clip-path="url(#clip)"/>
        </g>
        <g id="矩形_4823" data-name="矩形 4823" transform="translate(0.834 0)" fill="#6683c4" stroke="#086a5c" stroke-width="1">
          <rect id="fill-2" width="49.961" height="0.988" stroke="none"/>
          <path d="M0,0.48781633377075195h49.96056365966797M49.46056365966797,0v0.987816333770752M49.96056365966797,0.5h-49.96056365966797M0.5,0.987816333770752v-0.987816333770752" fill="none" clip-path="url(#clip-2)"/>
        </g>
        <g id="矩形_4824" data-name="矩形 4824" transform="translate(0 0)" fill="#6683c4" stroke="#086a5c" stroke-width="1">
          <rect width="1.165" height="24.037" stroke="none"/>
          <rect x="0.5" y="0.5" width="0.165" height="23.037" fill="none"/>
        </g>
        <g id="矩形_4825" data-name="矩形 4825" transform="translate(49.729 0)" fill="#13b39d" stroke="#086a5c" stroke-width="1">
          <rect width="1.066" height="24.037" stroke="none"/>
          <rect x="0.5" y="0.5" width="0.066" height="23.037" fill="none"/>
        </g>
      </g>
      <path id="路径_20265" data-name="路径 20265" d="M3.025,17.193H65.964L58.034,23.8h-69.18V21.972Z" transform="translate(48.72 54.301)" fill="#086a5c"/>
    </g>
  </g>
</svg>
